<?xml version="1.0" encoding="UTF-8"?>
<svg width="600" height="600" viewBox="0 0 600 600" xmlns="http://www.w3.org/2000/svg">
  <path id="3" d="M 60.500,200.869 C 59.833,200.168 59.167,199.468 58.500,198.767 C 66.114,198.948 73.727,199.130 81.341,199.311 C 100.171,199.760 104.488,200.132 105.920,201.428 C 107.859,203.183 116.976,203.624 118.560,202.040 C 120.913,199.687 188.594,209.418 192.130,212.618 C 194.438,214.706 204.053,216.839 216,217.912 C 230.276,219.195 257.918,227.120 295,240.561 C 316.220,248.253 331.786,254.973 336.224,258.358 C 341.429,262.328 369.786,275.995 372.374,275.781 C 379.173,275.218 454.736,322.715 467.381,335.500 C 474.330,342.526 482.700,348.983 484.931,349.040 C 486.849,349.089 501.729,361.876 524.880,383.366 C 530.673,388.744 536.467,394.122 542.260,399.500 C 495.133,399.584 448.007,399.669 400.880,399.753 C 353.753,399.837 306.627,399.922 259.500,400.006 C 226.667,367.167 193.833,334.327 161,301.488 C 106.825,247.303 61.600,202.025 60.500,200.869 ZM 208,283 C 207.667,283.333 207.333,283.667 207,284 C 205.681,285.136 204.361,286.273 203.042,287.409 C 197.684,292.023 193.177,293.339 184.608,292.789 C 166.388,291.620 152.974,278.791 153.012,262.572 C 153.027,255.993 155.050,248.536 158.633,241.852 C 162.299,235.013 174.957,222.177 181.749,218.411 C 184.636,216.810 186.998,214.918 186.999,214.206 C 187,212.870 154.368,207.416 131.693,204.963 C 118.576,203.544 118.748,203.441 112.489,216.491 C 107.804,226.260 105,236.934 105,245 C 121.230,261.147 137.460,277.294 153.690,293.441 C 180.470,320.084 202.745,341.657 203.190,341.382 C 203.635,341.107 204,339.836 204,338.557 C 204,337.278 205.812,332.610 208.028,328.183 C 215.205,313.845 229.777,302.986 248.825,297.783 C 259.656,294.825 285.447,294.609 295,297.397 C 315.605,303.411 326.380,311.030 351,337 C 351.333,337.333 351.667,337.667 352,338 C 353.104,339.583 354.208,341.167 355.312,342.750 C 363.712,354.798 370.755,369.314 377.510,388.500 C 378.566,391.500 379.623,394.500 380.679,397.500 C 387.574,397.590 394.469,397.680 401.364,397.770 C 408.259,397.860 415.153,397.951 422.048,398.041 C 421.841,397.118 421.635,396.193 421.428,395.270 C 419.822,388.100 411.569,365.204 406.602,354.138 C 399.847,339.089 394.561,329.819 382,311 C 381.667,310.667 381.333,310.333 381,310 C 379.540,307.917 378.079,305.833 376.619,303.750 C 368.688,292.435 357.535,280.633 340,265 C 329.981,257.031 319.701,252.193 290.414,241.664 C 267.353,233.373 257.239,230.170 236.319,224.528 C 230.633,222.995 224.948,221.461 219.262,219.928 C 216.637,220.470 214.013,221.013 211.388,221.555 C 192.016,225.556 176.438,236.150 169.971,249.720 C 165.026,260.096 165.581,267.982 171.659,273.715 C 175.790,277.611 184.536,280.468 189.267,279.468 C 196.520,277.934 199.315,271.374 194.500,267.187 C 191.412,264.502 191.182,259.818 194,257 C 198.393,252.607 206.108,256.207 209.107,264.051 C 209.738,265.701 210.369,267.350 211,269 C 211,270.177 211,271.355 211,272.532 C 211,274.475 210.325,277.625 208,283 ZM 311,356 C 311.333,356.333 311.667,356.667 312,357 C 312.855,358.250 313.711,359.500 314.566,360.750 C 320.083,368.814 325.021,379.970 328.509,392.250 C 329.053,394.167 329.598,396.083 330.142,398 C 336.141,398 342.139,398 348.138,398 C 354.137,398 360.136,398 366.135,398 C 365.917,397.250 365.699,396.500 365.481,395.750 C 361.621,382.470 352.465,362.983 344.835,351.812 C 330.374,330.640 310.920,315.861 290.520,310.547 C 282.938,308.572 263.854,308.536 254.685,310.479 C 239.778,313.638 225.410,323.395 219.972,334.054 C 218.736,336.476 217.337,340.605 216,348 C 216.196,349.417 216.393,350.833 216.589,352.250 C 217.134,356.183 218.720,358.050 237.830,377.250 C 244.714,384.167 251.598,391.083 258.482,398 C 267.902,398 277.321,398 286.741,398 C 318.922,398 316.552,398.817 313.136,388.907 C 305.684,367.291 293.129,354.105 278.327,352.352 C 261.453,350.354 251.772,366.657 264.640,375.401 C 270.149,379.144 271.079,378.855 270.361,373.620 C 269.857,369.945 270.120,368.880 271.993,367.007 C 276.043,362.957 284.879,366.396 286.444,372.632 C 287.409,376.478 285.120,383.080 281.600,386.600 C 277.510,390.690 271.622,392.366 265.818,391.093 C 259.418,389.689 250.466,382.197 247.451,375.721 C 243.707,367.680 244.260,362.102 250,350 C 250.667,349.333 251.333,348.667 252,348 C 252.950,347.181 253.901,346.363 254.851,345.544 C 262.773,338.720 276.886,336.810 288.917,340.934 C 292.446,342.144 297.284,344.454 304,349 C 304.333,349.333 304.667,349.667 305,350 C 307,352 309,354 311,356 ZM 462,334 C 461.667,333.667 461.333,333.333 461,333 C 459.917,332.149 458.833,331.299 457.750,330.448 C 449.803,324.208 412.995,300.362 397.734,291.566 C 388.513,286.251 380.525,282.149 379,283 C 380.609,285.250 382.219,287.500 383.828,289.750 C 386.483,293.462 391.208,300.212 400,313 C 400.333,313.333 400.667,313.667 401,314 C 402.380,316.416 403.760,318.831 405.140,321.247 C 416.494,341.121 426.142,363.415 432.463,384.382 C 434.433,390.917 436.286,396.654 436.581,397.132 C 436.876,397.610 446.159,398 457.209,398 C 463.906,398 470.604,398 477.301,398 C 477.088,394.744 476.873,391.487 476.660,388.231 C 475.834,375.624 472.829,359.046 469.091,346.469 C 467.042,339.576 465.491,336.114 462,334 ZM 487,362 C 489.323,377.888 490.336,385.875 490.749,390 C 490.999,392.500 491.250,395 491.500,397.500 C 499,397.576 506.500,397.652 514,397.728 C 521.500,397.804 529,397.881 536.500,397.957 C 533.115,394.664 529.730,391.370 526.345,388.077 C 520.759,382.643 511.872,374.552 506.595,370.098 C 503.397,367.399 500.198,364.699 497,362 C 495.340,360.476 493.681,358.952 492.021,357.428 C 489.283,354.913 486.582,353.113 485,354 C 485.667,356.667 486.333,359.333 487,362 ZM 100.531,209.509 C 101.608,207.368 102.685,205.228 103.762,203.087 C 102.385,202.921 101.008,202.755 99.631,202.589 C 91.588,201.619 63,200.950 63,201.732 C 63,202.813 91.824,231.520 92.339,230.952 C 92.564,230.703 93.773,227.222 95.025,223.215 C 96.277,219.208 98.754,213.041 100.531,209.509 Z" fill="#A11811" stroke="none" />
  <path id="2" d="M 351,337 C 350.559,335.917 350.117,334.833 349.676,333.750 C 348.419,330.666 333.902,315.016 332.270,314.986 C 331.846,314.978 329.475,313.137 327,310.895 C 321.277,305.710 304.865,297.654 294.500,294.943 C 285.127,292.491 265.253,291.972 255.500,293.926 C 247.764,295.475 237.575,298.735 232.510,301.280 C 221.370,306.878 208.128,320.465 204.388,330.134 C 203.459,332.535 202.307,334.938 201.827,335.473 C 201.293,336.068 182.875,318.401 154.395,289.973 C 138.875,274.482 123.356,258.991 107.836,243.500 C 108.012,241.471 108.189,239.442 108.365,237.413 C 108.964,230.516 112.523,220.324 117.164,212.213 C 118.212,210.381 119.260,208.551 120.308,206.719 C 123.340,206.925 126.372,207.131 129.404,207.337 C 142.736,208.244 179.445,213.833 179.839,215.016 C 180.222,216.166 176.004,220.192 170.214,224.203 C 161.775,230.048 153.019,245.031 150.981,257.112 C 149.938,263.295 150.032,264.748 151.867,270.788 C 156.751,286.867 176.021,298.421 192.314,295.039 C 199.026,293.646 207.778,287.066 207,284 C 207.333,283.667 207.667,283.333 208,283 C 208.338,283.196 208.676,283.392 209.014,283.588 C 210.790,284.618 213.004,277.322 212.900,270.782 C 212.824,265.990 212.587,265.034 211,269 C 210.369,267.350 209.738,265.701 209.107,264.051 C 206.108,256.207 198.393,252.607 194,257 C 191.182,259.818 191.412,264.502 194.500,267.187 C 199.315,271.374 196.520,277.934 189.267,279.468 C 184.536,280.468 175.790,277.611 171.659,273.715 C 165.581,267.982 165.026,260.096 169.971,249.720 C 176.438,236.150 192.016,225.556 211.388,221.555 C 214.013,221.013 216.637,220.470 219.262,219.928 C 224.948,221.461 230.633,222.995 236.319,224.528 C 257.239,230.170 267.353,233.373 290.414,241.664 C 319.701,252.193 329.981,257.031 340,265 C 339.583,265.300 339.167,265.601 338.750,265.901 C 337.840,266.557 338.231,267.087 340.189,267.853 C 341.668,268.431 343.371,269.826 343.974,270.952 C 344.577,272.078 345.690,273 346.447,273 C 348.132,273 367,292.825 367,294.596 C 367,295.293 368.254,296.757 369.786,297.848 C 371.318,298.939 373.215,301.107 374,302.666 C 377.050,308.720 379.278,311.054 381,310 C 381.333,310.333 381.667,310.667 382,311 C 381.810,311.492 381.621,311.985 381.431,312.477 C 381.118,313.289 381.013,314.077 381.198,314.227 C 384.776,317.134 397.984,340.581 405.141,356.731 C 411.361,370.766 418,389.533 418,393.080 C 418,394.970 417.324,395.036 400.358,394.773 C 385.914,394.549 382.564,394.228 381.879,393 C 381.419,392.175 379.398,387 377.389,381.500 C 369.033,358.627 358.238,340.132 352,338 C 351.667,337.667 351.333,337.333 351,337 Z" fill="#FFCB74" stroke="none" />
  <path id="2" d="M 312,357 C 311.667,356.667 311.333,356.333 311,356 C 311.202,355.643 311.405,355.286 311.607,354.929 C 312.312,353.685 308.230,349 306.441,349 C 305.775,349 304.560,347.987 303.742,346.750 C 300.528,341.890 284.977,336.034 275.225,336.012 C 269.327,335.999 259.755,338.988 256.582,341.834 C 255.437,342.861 253.706,343.982 252.735,344.325 C 251.764,344.668 250.538,346.085 250.010,347.474 C 249.482,348.863 248.629,350 248.114,350 C 247.599,350 246.238,351.942 245.089,354.316 C 242.512,359.639 242.298,369.205 244.625,375.021 C 245.519,377.255 245.954,379.380 245.591,379.743 C 245.228,380.106 239.060,374.574 231.884,367.451 C 227.535,363.134 223.185,358.817 218.836,354.500 C 218.978,352.167 219.120,349.833 219.262,347.500 C 219.717,340.013 222.536,333.082 227.547,327.126 C 231.259,322.714 242.107,316.573 251,313.849 C 261.013,310.782 283.196,310.514 292.448,313.349 C 320.279,321.876 344.358,347.116 357.962,382.025 C 360.183,387.724 362,392.987 362,393.720 C 362,394.783 358.952,394.996 346.911,394.776 C 341.881,394.684 336.852,394.592 331.822,394.500 C 330.759,391.333 329.695,388.167 328.632,385 C 323.523,369.784 316.982,358.772 312,357 Z" fill="#FFCB74" stroke="none" />
  <path id="2" d="M 401,314 C 400.667,313.667 400.333,313.333 400,313 C 399.863,311.970 399.727,310.939 399.590,309.909 C 399.364,308.209 397.844,305.397 396.211,303.659 C 394.578,301.921 393.187,299.972 393.121,299.327 C 393.055,298.682 391.650,296.804 390,295.154 C 388.350,293.504 387.014,291.332 387.031,290.327 C 387.057,288.804 388.847,289.482 397.781,294.397 C 409.751,300.982 434.432,316.407 440.358,321.006 C 442.480,322.653 444.804,324 445.523,324 C 446.242,324 448.105,325.350 449.662,327 C 451.219,328.650 452.970,330 453.552,330 C 455.112,330 460.652,334.287 463.080,337.374 C 465.930,340.997 471.489,363.849 473.476,380.106 C 474.349,387.247 474.797,393.520 474.472,394.045 C 473.528,395.573 438.018,395.289 437.589,393.750 C 434.257,381.802 426.649,359.945 422.707,351 C 412.946,328.847 403.369,312.524 401,314 Z" fill="#FFCB74" stroke="none" />
  <path id="20" d="M 312,357 C 316.982,358.772 323.523,369.784 328.632,385 C 329.695,388.167 330.759,391.333 331.822,394.500 C 336.852,394.592 341.881,394.684 346.911,394.776 C 358.952,394.996 362,394.783 362,393.720 C 362,392.987 360.183,387.724 357.962,382.025 C 344.358,347.116 320.279,321.876 292.448,313.349 C 283.196,310.514 261.013,310.782 251,313.849 C 242.107,316.573 231.259,322.714 227.547,327.126 C 222.536,333.082 219.717,340.013 219.262,347.500 C 219.120,349.833 218.978,352.167 218.836,354.500 C 223.185,358.817 227.535,363.134 231.884,367.451 C 239.060,374.574 245.228,380.106 245.591,379.743 C 245.954,379.380 245.519,377.255 244.625,375.021 C 242.298,369.205 242.512,359.639 245.089,354.316 C 246.238,351.942 247.599,350 248.114,350 C 248.629,350 249.482,348.863 250.010,347.474 C 250.538,346.085 251.764,344.668 252.735,344.325 C 253.706,343.982 255.437,342.861 256.582,341.834 C 259.755,338.988 269.327,335.999 275.225,336.012 C 284.977,336.034 300.528,341.890 303.742,346.750 C 304.560,347.987 305.775,349 306.441,349 C 308.230,349 312.312,353.685 311.607,354.929 C 311.405,355.286 311.202,355.643 311,356 C 309,354 307,352 305,350 C 304.667,349.667 304.333,349.333 304,349 C 297.284,344.454 292.446,342.144 288.917,340.934 C 276.886,336.810 262.773,338.720 254.851,345.544 C 253.901,346.363 252.950,347.181 252,348 C 251.333,348.667 250.667,349.333 250,350 C 244.260,362.102 243.707,367.680 247.451,375.721 C 250.466,382.197 259.418,389.689 265.818,391.093 C 271.622,392.366 277.510,390.690 281.600,386.600 C 285.120,383.080 287.409,376.478 286.444,372.632 C 284.879,366.396 276.043,362.957 271.993,367.007 C 270.120,368.880 269.857,369.945 270.361,373.620 C 271.079,378.855 270.149,379.144 264.640,375.401 C 251.772,366.657 261.453,350.354 278.327,352.352 C 293.129,354.105 305.684,367.291 313.136,388.907 C 316.552,398.817 318.922,398 286.741,398 C 277.321,398 267.902,398 258.482,398 C 251.598,391.083 244.714,384.167 237.830,377.250 C 218.720,358.050 217.134,356.183 216.589,352.250 C 216.393,350.833 216.196,349.417 216,348 C 217.337,340.605 218.736,336.476 219.972,334.054 C 225.410,323.395 239.778,313.638 254.685,310.479 C 263.854,308.536 282.938,308.572 290.520,310.547 C 310.920,315.861 330.374,330.640 344.835,351.812 C 352.465,362.983 361.621,382.470 365.481,395.750 C 365.699,396.500 365.917,397.250 366.135,398 C 360.136,398 354.137,398 348.138,398 C 342.139,398 336.141,398 330.142,398 C 329.598,396.083 329.053,394.167 328.509,392.250 C 325.021,379.970 320.083,368.814 314.566,360.750 C 313.711,359.500 312.855,358.250 312,357 ZM 305.539,380.188 C 298.164,365.038 288.621,357.036 277,356.258 C 267.546,355.625 260.125,361.589 262.870,367.613 C 264.258,370.658 265.801,370.654 266.962,367.601 C 268.370,363.898 271.886,362 277.340,362 C 281.693,362 282.666,362.430 286.118,365.882 C 289.626,369.390 290,370.263 290,374.932 C 290,380.754 288.196,385.004 283.723,389.718 C 279.737,393.919 280.410,394.132 296.553,393.781 C 312.248,393.440 312.100,393.665 305.539,380.188 Z" fill="#FAEA95" stroke="none" />
  <path id="20" d="M 207,284 C 207.778,287.066 199.026,293.646 192.314,295.039 C 176.021,298.421 156.751,286.867 151.867,270.788 C 150.032,264.748 149.938,263.295 150.981,257.112 C 153.019,245.031 161.775,230.048 170.214,224.203 C 176.004,220.192 180.222,216.166 179.839,215.016 C 179.445,213.833 142.736,208.244 129.404,207.337 C 126.372,207.131 123.340,206.925 120.308,206.719 C 119.260,208.551 118.212,210.381 117.164,212.213 C 112.523,220.324 108.964,230.516 108.365,237.413 C 108.189,239.442 108.012,241.471 107.836,243.500 C 123.356,258.991 138.875,274.482 154.395,289.973 C 182.875,318.401 201.293,336.068 201.827,335.473 C 202.307,334.938 203.459,332.535 204.388,330.134 C 208.128,320.465 221.370,306.878 232.510,301.280 C 237.575,298.735 247.764,295.475 255.500,293.926 C 265.253,291.972 285.127,292.491 294.500,294.943 C 304.865,297.654 321.277,305.710 327,310.895 C 329.475,313.137 331.846,314.978 332.270,314.986 C 333.902,315.016 348.419,330.666 349.676,333.750 C 350.117,334.833 350.559,335.917 351,337 C 326.380,311.030 315.605,303.411 295,297.397 C 285.447,294.609 259.656,294.825 248.825,297.783 C 229.777,302.986 215.205,313.845 208.028,328.183 C 205.812,332.610 204,337.278 204,338.557 C 204,339.836 203.635,341.107 203.190,341.382 C 202.745,341.657 180.470,320.084 153.690,293.441 C 137.460,277.294 121.230,261.147 105,245 C 105,236.934 107.804,226.260 112.489,216.491 C 118.748,203.441 118.576,203.544 131.693,204.963 C 154.368,207.416 187,212.870 186.999,214.206 C 186.998,214.918 184.636,216.810 181.749,218.411 C 174.957,222.177 162.299,235.013 158.633,241.852 C 155.050,248.536 153.027,255.993 153.012,262.572 C 152.974,278.791 166.388,291.620 184.608,292.789 C 193.177,293.339 197.684,292.023 203.042,287.409 C 204.361,286.273 205.681,285.136 207,284 Z" fill="#FAEA95" stroke="none" />
  <path id="2" d="M 487,362 C 487.415,361.500 487.830,361 488.245,360.500 C 490.022,358.359 491.490,358.610 497,362 C 500.198,364.699 503.397,367.399 506.595,370.098 C 511.872,374.552 520.759,382.643 526.345,388.077 C 529.730,391.370 533.115,394.664 536.500,397.957 C 529,397.881 521.500,397.804 514,397.728 C 506.500,397.652 499,397.576 491.500,397.500 C 491.250,395 490.999,392.500 490.749,390 C 490.336,385.875 489.323,377.888 487,362 Z" fill="#FFCB74" stroke="none" />
  <path id="20" d="M 461,333 C 461.333,333.333 461.667,333.667 462,334 C 465.491,336.114 467.042,339.576 469.091,346.469 C 472.829,359.046 475.834,375.624 476.660,388.231 C 476.873,391.487 477.088,394.744 477.301,398 C 470.604,398 463.906,398 457.209,398 C 446.159,398 436.876,397.610 436.581,397.132 C 436.286,396.654 434.433,390.917 432.463,384.382 C 426.142,363.415 416.494,341.121 405.140,321.247 C 403.760,318.831 402.380,316.416 401,314 C 403.369,312.524 412.946,328.847 422.707,351 C 426.649,359.945 434.257,381.802 437.589,393.750 C 438.018,395.289 473.528,395.573 474.472,394.045 C 474.797,393.520 474.349,387.247 473.476,380.106 C 471.489,363.849 465.930,340.997 463.080,337.374 C 460.652,334.287 455.112,330 453.552,330 C 452.970,330 451.219,328.650 449.662,327 C 448.105,325.350 446.242,324 445.523,324 C 444.804,324 442.480,322.653 440.358,321.006 C 434.432,316.407 409.751,300.982 397.781,294.397 C 388.847,289.482 387.057,288.804 387.031,290.327 C 387.014,291.332 388.350,293.504 390,295.154 C 391.650,296.804 393.055,298.682 393.121,299.327 C 393.187,299.972 394.578,301.921 396.211,303.659 C 397.844,305.397 399.364,308.209 399.590,309.909 C 399.727,310.939 399.863,311.970 400,313 C 391.208,300.212 386.483,293.462 383.828,289.750 C 382.219,287.500 380.609,285.250 379,283 C 380.525,282.149 388.513,286.251 397.734,291.566 C 412.995,300.362 449.803,324.208 457.750,330.448 C 458.833,331.299 459.917,332.149 461,333 Z" fill="#FAEA95" stroke="none" />
  <path id="20" d="M 100.531,209.509 C 98.754,213.041 96.277,219.208 95.025,223.215 C 93.773,227.222 92.564,230.703 92.339,230.952 C 91.824,231.520 63,202.813 63,201.732 C 63,200.950 91.588,201.619 99.631,202.589 C 101.008,202.755 102.385,202.921 103.762,203.087 C 102.685,205.228 101.608,207.368 100.531,209.509 ZM 85.394,205.642 C 78.958,205.274 73.448,205.219 73.149,205.518 C 72.589,206.078 88.969,223 90.070,223 C 90.573,223 93.439,216.283 96.510,207.905 C 97.016,206.525 95.517,206.220 85.394,205.642 Z" fill="#FAEA95" stroke="none" />
  <path id="20" d="M 352,338 C 358.238,340.132 369.033,358.627 377.389,381.500 C 379.398,387 381.419,392.175 381.879,393 C 382.564,394.228 385.914,394.549 400.358,394.773 C 417.324,395.036 418,394.970 418,393.080 C 418,389.533 411.361,370.766 405.141,356.731 C 397.984,340.581 384.776,317.134 381.198,314.227 C 381.013,314.077 381.118,313.289 381.431,312.477 C 381.621,311.985 381.810,311.492 382,311 C 394.561,329.819 399.847,339.089 406.602,354.138 C 411.569,365.204 419.822,388.100 421.428,395.270 C 421.635,396.193 421.841,397.118 422.048,398.041 C 415.153,397.951 408.259,397.860 401.364,397.770 C 394.469,397.680 387.574,397.590 380.679,397.500 C 379.623,394.500 378.566,391.500 377.510,388.500 C 370.755,369.314 363.712,354.798 355.312,342.750 C 354.208,341.167 353.104,339.583 352,338 Z" fill="#FAEA95" stroke="none" />
  <path id="2" d="M 305.539,380.188 C 312.100,393.665 312.248,393.440 296.553,393.781 C 280.410,394.132 279.737,393.919 283.723,389.718 C 288.196,385.004 290,380.754 290,374.932 C 290,370.263 289.626,369.390 286.118,365.882 C 282.666,362.430 281.693,362 277.340,362 C 271.886,362 268.370,363.898 266.962,367.601 C 265.801,370.654 264.258,370.658 262.870,367.613 C 260.125,361.589 267.546,355.625 277,356.258 C 288.621,357.036 298.164,365.038 305.539,380.188 Z" fill="#FFCB74" stroke="none" />
  <path id="2" d="M 85.394,205.642 C 95.517,206.220 97.016,206.525 96.510,207.905 C 93.439,216.283 90.573,223 90.070,223 C 88.969,223 72.589,206.078 73.149,205.518 C 73.448,205.219 78.958,205.274 85.394,205.642 Z" fill="#FFCB74" stroke="none" />
  <path id="20" d="M 381,310 C 379.278,311.054 377.050,308.720 374,302.666 C 373.215,301.107 371.318,298.939 369.786,297.848 C 368.254,296.757 367,295.293 367,294.596 C 367,292.825 348.132,273 346.447,273 C 345.690,273 344.577,272.078 343.974,270.952 C 343.371,269.826 341.668,268.431 340.189,267.853 C 338.231,267.087 337.840,266.557 338.750,265.901 C 339.167,265.601 339.583,265.300 340,265 C 357.535,280.633 368.688,292.435 376.619,303.750 C 378.079,305.833 379.540,307.917 381,310 Z" fill="#FAEA95" stroke="none" />
  <path id="20" d="M 497,362 C 491.490,358.610 490.022,358.359 488.245,360.500 C 487.830,361 487.415,361.500 487,362 C 486.333,359.333 485.667,356.667 485,354 C 486.582,353.113 489.283,354.913 492.021,357.428 C 493.681,358.952 495.340,360.476 497,362 Z" fill="#FAEA95" stroke="none" />
  <path id="20" d="M 211,269 C 212.587,265.034 212.824,265.990 212.900,270.782 C 213.004,277.322 210.790,284.618 209.014,283.588 C 208.676,283.392 208.338,283.196 208,283 C 210.325,277.625 211,274.475 211,272.532 C 211,271.355 211,270.177 211,269 Z" fill="#FAEA95" stroke="none" />
</svg>
