<?xml version="1.0" encoding="UTF-8"?>
<svg width="600" height="600" viewBox="0 0 600 600" xmlns="http://www.w3.org/2000/svg">
  <path id="1" d="M 488.450,103.823 C 487.927,104.276 483,107.827 477.500,111.715 C 472,115.603 460.936,123.895 452.913,130.142 C 444.890,136.389 430.715,147.423 421.413,154.662 C 412.111,161.901 396.009,174.779 385.631,183.277 C 367.871,197.821 366.586,199.103 363.772,205.114 C 357.891,217.674 353.955,228.667 345.610,255.831 C 343.249,263.515 340.133,268.565 333.301,275.775 C 321.657,288.065 319.319,296.243 325.064,304.593 C 326.749,307.042 332.684,313.781 338.252,319.568 C 343.820,325.355 349.361,331.539 350.565,333.311 C 351.769,335.083 360.010,345.966 368.877,357.496 C 377.745,369.026 385,378.878 385,379.390 C 385,379.902 378.019,373.085 369.486,364.240 C 355.630,349.877 333.598,331.068 332.231,332.435 C 331.972,332.694 334.686,336.640 338.262,341.203 C 345.399,350.312 363.408,368.218 374.732,377.464 C 378.710,380.712 381.753,383.580 381.494,383.839 C 380.843,384.490 369.211,376.650 353.615,365.050 C 346.402,359.685 337.800,353.572 334.500,351.466 C 331.200,349.360 323.910,343.447 318.299,338.327 C 306.742,327.780 299.779,322.990 296.054,323.022 C 291.335,323.063 285.560,326.645 276,335.462 C 265.686,344.975 263.054,346.452 246.495,352.038 C 227.636,358.399 207.311,367.215 201.352,371.619 C 195.546,375.910 130.208,464.898 113.459,491.325 C 111.806,493.933 110.153,496.541 108.500,499.149 C 109.127,495.207 109.754,491.267 110.381,487.325 C 112.403,474.608 118.473,446.505 122.006,433.500 C 123.201,429.100 124.540,424.150 124.981,422.500 C 125.422,420.850 127.451,414.325 129.489,408 C 131.527,401.675 133.554,395.375 133.993,394 C 136.900,384.896 146.362,359.524 158.645,327.892 C 167.316,305.563 167.245,305.624 189,301.470 C 211.169,297.237 226.237,292.518 229.803,288.692 C 232.758,285.521 243,268.941 243,267.328 C 243,266.576 241.960,264.282 240.688,262.230 C 238.037,257.953 232.005,245.526 231.991,244.313 C 231.986,243.866 229.077,239.450 225.526,234.500 C 221.975,229.550 218.529,224.375 217.867,223 C 216.732,220.642 217.029,220.723 223.082,224.418 C 226.612,226.573 231.786,229.829 234.580,231.653 C 237.374,233.477 241.441,235.598 243.619,236.366 C 245.797,237.134 250.812,239.391 254.764,241.381 C 258.716,243.371 262.865,245 263.984,245 C 266.285,245 281.427,235.335 284.650,231.810 C 287.996,228.149 292.466,213.637 294.908,198.500 C 299.391,170.714 299.257,171.128 305.229,166.717 C 307.028,165.388 310.300,163.584 312.500,162.708 C 314.700,161.831 321.225,159.033 327,156.488 C 387.120,129.997 432.771,114.390 477.409,105.069 C 488.440,102.765 489.855,102.606 488.450,103.823 Z" fill="#000000" stroke="none" />
  <path id="1" d="M 382.800,384 C 383.460,384 384,384.540 384,385.200 C 384,385.600 384,386 384,386.400 C 383.600,386 383.200,385.600 382.800,385.200 C 382.400,384.800 382,384.400 381.600,384 C 382,384 382.400,384 382.800,384 Z" fill="#000000" stroke="none" />
  <path id="1" d="M 386.500,382 C 386.775,382 387,382.225 387,382.500 C 387,382.775 386.775,383 386.500,383 C 386.225,383 386,382.775 386,382.500 C 386,382.225 386.225,382 386.500,382 Z" fill="#000000" stroke="none" />
</svg>
