<?xml version="1.0" encoding="UTF-8"?>
<svg width="600" height="600" viewBox="0 0 600 600" xmlns="http://www.w3.org/2000/svg">
  <path id="1" d="M 190.252,300.248 C 227.003,263.499 263.752,226.749 300.503,190 C 337.252,226.751 374.003,263.501 410.752,300.252 C 471.389,360.890 521,410.840 521,411.252 C 521,411.664 421.775,412 300.500,412 C 179.225,412 80,411.661 80,411.248 C 80,410.835 129.614,360.885 190.252,300.248 ZM 301.503,300 C 274.172,300 246.840,300 219.509,300 C 233.173,313.667 246.838,327.335 260.502,341.002 C 274.166,354.669 287.830,368.336 301.494,382.003 C 315.161,368.336 328.828,354.669 342.495,341.002 C 356.162,327.335 369.830,313.667 383.497,300 C 356.166,300 328.834,300 301.503,300 Z" fill="#A11811" stroke="none" />
  <path id="2" d="M 301.503,300 C 328.834,300 356.166,300 383.497,300 C 369.830,313.667 356.162,327.335 342.495,341.002 C 328.828,354.669 315.161,368.336 301.494,382.003 C 287.830,368.336 274.166,354.669 260.502,341.002 C 246.838,327.335 233.173,313.667 219.509,300 C 246.840,300 274.172,300 301.503,300 ZM 229.628,303.706 C 228.835,304.499 299.919,376 301.500,376 C 302.649,376 374,304.890 374,303.745 C 374,302.797 230.576,302.758 229.628,303.706 Z" fill="#FAEA93" stroke="none" />
  <path id="3" d="M 229.628,303.706 C 230.576,302.758 374,302.797 374,303.745 C 374,304.890 302.649,376 301.500,376 C 299.919,376 228.835,304.499 229.628,303.706 Z" fill="#FFCB74" stroke="none" />
</svg>
