<?xml version="1.0" encoding="UTF-8"?>
<svg width="600" height="600" viewBox="0 0 600 600" xmlns="http://www.w3.org/2000/svg">
  <path id="5" d="M 190.451,80.081 C 194.560,83.861 410,299.599 410,299.934 C 410,300.194 360.612,349.518 300.250,409.542 C 263.667,445.920 227.083,482.299 190.500,518.677 C 190.416,445.508 190.332,372.339 190.248,299.170 C 190.109,178.441 190.201,79.851 190.451,80.081 ZM 329,351 C 329.333,350.667 329.667,350.333 330,350 C 331.250,348.908 332.500,347.815 333.750,346.723 C 347.683,334.548 356.009,314.186 354.693,295.500 C 352.825,268.978 335.261,245.924 310,236.838 C 304.288,234.784 301.742,234.505 289,234.541 C 275.553,234.579 273.958,234.787 267.032,237.416 C 240.134,247.625 223.827,271.023 223.762,299.500 C 223.720,317.721 229.608,331.664 242.977,345.005 C 252.253,354.261 257.376,357.466 269.275,361.458 C 289.487,368.239 310.168,364.618 329,351 Z" fill="#A11811" stroke="none" />
  <path id="4" d="M 329,350 C 328.750,349.973 328.500,349.945 328.250,349.918 C 327.837,349.873 325.323,351.205 322.662,352.879 C 315.881,357.145 307.911,359.964 298,361.604 C 271.374,366.009 243.131,350.806 231.859,326 C 227.468,316.338 226.587,311.847 226.561,299 C 226.540,288.567 226.911,285.405 228.808,279.875 C 231.321,272.549 236.855,262.518 239.972,259.643 C 241.079,258.621 241.779,257.453 241.528,257.046 C 240.382,255.192 255.032,245.064 264.772,240.976 C 274.602,236.851 281.710,235.672 293,236.296 C 323.744,237.995 347.639,260.692 352.047,292.383 C 354.397,309.280 348.028,328.247 335.435,341.848 C 331.754,345.824 329.025,349.284 330,350 C 329.667,350.333 329.333,350.667 329,351 C 329,350.667 329,350.333 329,350 ZM 239.503,283.792 C 238.676,286.043 238.113,291.901 238.070,298.704 C 238.011,308.078 238.384,310.967 240.350,316.383 C 245.290,329.994 253.738,339.350 266.893,345.781 C 269.429,347.021 271.964,348.260 274.500,349.500 C 279.333,349.500 284.167,349.500 289,349.500 C 293.833,349.500 298.667,349.500 303.500,349.500 C 306.126,348.246 308.752,346.992 311.378,345.738 C 321.114,341.089 331.305,331.276 335.412,322.594 C 340.708,311.400 342.181,298.637 339.494,287.240 C 335.399,269.872 323.331,256.450 306.455,250.496 C 296.732,247.065 281.451,246.997 272,250.343 C 264.705,252.926 257.190,257.342 256.345,259.543 C 256.037,260.345 255.185,261 254.451,261 C 251.623,261 243.108,273.983 239.503,283.792 Z" fill="#FFCB74" stroke="none" />
  <path id="9" d="M 239.503,283.792 C 243.108,273.983 251.623,261 254.451,261 C 255.185,261 256.037,260.345 256.345,259.543 C 257.190,257.342 264.705,252.926 272,250.343 C 281.451,246.997 296.732,247.065 306.455,250.496 C 323.331,256.450 335.399,269.872 339.494,287.240 C 342.181,298.637 340.708,311.400 335.412,322.594 C 331.305,331.276 321.114,341.089 311.378,345.738 C 308.752,346.992 306.126,348.246 303.500,349.500 C 298.667,349.500 293.833,349.500 289,349.500 C 284.167,349.500 279.333,349.500 274.500,349.500 C 271.964,348.260 269.429,347.021 266.893,345.781 C 253.738,339.350 245.290,329.994 240.350,316.383 C 238.384,310.967 238.011,308.078 238.070,298.704 C 238.113,291.901 238.676,286.043 239.503,283.792 ZM 337.591,289.500 C 333.714,270.325 318.655,254.907 299.872,250.879 C 296.972,250.257 290.527,249.963 285.550,250.225 C 277.859,250.630 275.334,251.240 268.738,254.291 C 257.747,259.374 250.047,266.954 244.744,277.911 C 240.960,285.729 240.622,287.117 240.201,296.582 C 239.827,304.993 240.116,308.024 241.830,313.667 C 245.803,326.746 255.128,337.543 267.805,343.739 C 270.370,344.993 272.935,346.246 275.500,347.500 C 280,347.500 284.500,347.500 289,347.500 C 302.497,347.500 302.502,347.499 310.278,343.802 C 324.919,336.841 335.343,322.945 337.943,306.923 C 339.198,299.185 339.159,297.256 337.591,289.500 Z" fill="#FAEA95" stroke="none" />
  <path id="5" d="M 337.591,289.500 C 339.159,297.256 339.198,299.185 337.943,306.923 C 335.343,322.945 324.919,336.841 310.278,343.802 C 302.502,347.499 302.497,347.500 289,347.500 C 284.500,347.500 280,347.500 275.500,347.500 C 272.935,346.246 270.370,344.993 267.805,343.739 C 255.128,337.543 245.803,326.746 241.830,313.667 C 240.116,308.024 239.827,304.993 240.201,296.582 C 240.622,287.117 240.960,285.729 244.744,277.911 C 250.047,266.954 257.747,259.374 268.738,254.291 C 275.334,251.240 277.859,250.630 285.550,250.225 C 290.527,249.963 296.972,250.257 299.872,250.879 C 318.655,254.907 333.714,270.325 337.591,289.500 ZM 256.974,292.920 C 253.166,314.401 270.210,333.461 291.687,331.737 C 303.307,330.804 314.356,322.986 319.329,312.176 C 322.439,305.417 322.360,292.346 319.169,285.864 C 315.520,278.450 310.509,273.376 303.363,269.858 C 297.671,267.056 295.804,266.637 289.155,266.671 C 283.189,266.702 280.286,267.261 276,269.205 C 266.119,273.687 258.757,282.863 256.974,292.920 Z" fill="#A11811" stroke="none" />
  <path id="9" d="M 256.974,292.920 C 258.757,282.863 266.119,273.687 276,269.205 C 280.286,267.261 283.189,266.702 289.155,266.671 C 295.804,266.637 297.671,267.056 303.363,269.858 C 310.509,273.376 315.520,278.450 319.169,285.864 C 322.360,292.346 322.439,305.417 319.329,312.176 C 314.356,322.986 303.307,330.804 291.687,331.737 C 270.210,333.461 253.166,314.401 256.974,292.920 ZM 319.114,293.962 C 317.010,283.763 308.234,273.566 298.887,270.462 C 292.663,268.395 282.088,268.827 276.855,271.362 C 262.851,278.147 255.692,294.527 260.459,308.878 C 262.761,315.808 270.358,324.036 277.230,327.042 C 284.891,330.393 293.759,330.256 301,326.675 C 311.775,321.346 311.399,321.717 316.405,311.500 C 319.167,305.862 320.196,299.206 319.114,293.962 Z" fill="#FAEA95" stroke="none" />
  <path id="4" d="M 319.114,293.962 C 320.196,299.206 319.167,305.862 316.405,311.500 C 311.399,321.717 311.775,321.346 301,326.675 C 293.759,330.256 284.891,330.393 277.230,327.042 C 270.358,324.036 262.761,315.808 260.459,308.878 C 255.692,294.527 262.851,278.147 276.855,271.362 C 282.088,268.827 292.663,268.395 298.887,270.462 C 308.234,273.566 317.010,283.763 319.114,293.962 ZM 272.412,290.500 C 270.759,294.218 270.602,304.378 272.152,307.316 C 274.065,310.942 279.742,315.760 283.600,317.033 C 298.642,321.997 312.726,306.003 306.120,291.459 C 303.880,286.527 299.193,282.426 294.219,281.044 C 289.280,279.672 288.026,279.727 282.904,281.534 C 277.776,283.343 274.256,286.352 272.412,290.500 Z" fill="#FFCB74" stroke="none" />
  <path id="9" d="M 330,350 C 329.025,349.284 331.754,345.824 335.435,341.848 C 348.028,328.247 354.397,309.280 352.047,292.383 C 347.639,260.692 323.744,237.995 293,236.296 C 281.710,235.672 274.602,236.851 264.772,240.976 C 255.032,245.064 240.382,255.192 241.528,257.046 C 241.779,257.453 241.079,258.621 239.972,259.643 C 236.855,262.518 231.321,272.549 228.808,279.875 C 226.911,285.405 226.540,288.567 226.561,299 C 226.587,311.847 227.468,316.338 231.859,326 C 243.131,350.806 271.374,366.009 298,361.604 C 307.911,359.964 315.881,357.145 322.662,352.879 C 325.323,351.205 327.837,349.873 328.250,349.918 C 328.500,349.945 328.750,349.973 329,350 C 329,350.333 329,350.667 329,351 C 310.168,364.618 289.487,368.239 269.275,361.458 C 257.376,357.466 252.253,354.261 242.977,345.005 C 229.608,331.664 223.720,317.721 223.762,299.500 C 223.827,271.023 240.134,247.625 267.032,237.416 C 273.958,234.787 275.553,234.579 289,234.541 C 301.742,234.505 304.288,234.784 310,236.838 C 335.261,245.924 352.825,268.978 354.693,295.500 C 356.009,314.186 347.683,334.548 333.750,346.723 C 332.500,347.815 331.250,348.908 330,350 Z" fill="#FAEA95" stroke="none" />
  <path id="9" d="M 272.412,290.500 C 274.256,286.352 277.776,283.343 282.904,281.534 C 288.026,279.727 289.280,279.672 294.219,281.044 C 299.193,282.426 303.880,286.527 306.120,291.459 C 312.726,306.003 298.642,321.997 283.600,317.033 C 279.742,315.760 274.065,310.942 272.152,307.316 C 270.602,304.378 270.759,294.218 272.412,290.500 ZM 304.584,293.684 C 301.957,286.491 297.013,283 289.451,283 C 279.446,283 272.997,289.266 273.004,298.982 C 273.011,309.209 278.931,314.989 289.406,314.996 C 294.200,314.999 295.941,314.519 298.657,312.448 C 304.614,307.904 307.009,300.324 304.584,293.684 Z" fill="#FAEA95" stroke="none" />
  <path id="5" d="M 304.584,293.684 C 307.009,300.324 304.614,307.904 298.657,312.448 C 295.941,314.519 294.200,314.999 289.406,314.996 C 278.931,314.989 273.011,309.209 273.004,298.982 C 272.997,289.266 279.446,283 289.451,283 C 297.013,283 301.957,286.491 304.584,293.684 Z" fill="#A11811" stroke="none" />
</svg>
