<?xml version="1.0" encoding="UTF-8"?>
<svg width="600" height="600" viewBox="0 0 600 600" xmlns="http://www.w3.org/2000/svg">
  <path id="1" d="M 300,189 C 373.166,189 446.333,189 519.499,189 C 482.916,225.583 446.332,262.166 409.749,298.749 C 373.166,335.332 336.583,371.916 300,408.499 C 263.417,371.916 226.834,335.332 190.251,298.749 C 153.668,262.166 117.084,225.583 80.501,189 C 153.667,189 226.834,189 300,189 ZM 249,205 C 237.423,216.494 225.846,227.989 214.269,239.483 C 182.177,271.346 179.669,274.081 183,277 C 184.333,278.333 185.667,279.667 187,281 C 200.007,268.250 213.014,255.500 226.021,242.750 C 239.028,230 252.035,217.250 265.042,204.500 C 260.695,204.333 256.347,204.167 252,204 C 251,204.333 250,204.667 249,205 ZM 141.267,214.232 C 135.620,219.860 131,224.676 131,224.935 C 131,225.890 137.428,232 138.433,232 C 139.618,232 166,205.934 166,204.764 C 166,204.344 162.745,204 158.767,204 C 156.356,204 153.945,204 151.534,204 C 148.112,207.411 144.689,210.821 141.267,214.232 ZM 178.253,226.353 C 170.504,234.061 162.756,241.769 155.007,249.477 C 156.340,250.810 157.674,252.145 159.007,253.478 C 160.340,254.811 161.675,256.145 163.008,257.478 C 171.845,248.648 180.683,239.819 189.520,230.989 C 198.357,222.159 207.195,213.330 216.032,204.500 C 213.610,204.288 211.188,204.076 208.766,203.864 C 206.344,203.652 203.922,203.441 201.500,203.229 C 193.751,210.937 186.002,218.645 178.253,226.353 ZM 361,326 C 361.762,326.837 362.523,327.675 363.285,328.512 C 364.047,329.349 364.808,330.188 365.570,331.025 C 366.892,329.627 368.213,328.229 369.535,326.831 C 370.857,325.433 372.178,324.036 373.500,322.638 C 372.036,321.032 370.573,319.425 369.109,317.819 C 367.645,316.213 366.181,314.606 364.717,313 C 367.856,313 370.996,313 374.135,313 C 377.274,313 380.415,313 383.554,313 C 385.870,310.666 388.185,308.333 390.501,305.999 C 392.817,303.665 395.132,301.332 397.448,298.998 C 394.957,296.415 392.465,293.832 389.974,291.249 C 387.483,288.666 384.991,286.083 382.500,283.500 C 395.662,270.250 408.824,257 421.986,243.750 C 435.148,230.500 448.310,217.250 461.472,204 C 458.808,204 456.145,204 453.481,204 C 450.817,204 448.153,204 445.489,204 C 433.826,215.667 422.163,227.333 410.500,239 C 391.256,258.250 374.822,274 373.980,274 C 373.138,274 369.093,270.621 364.991,266.491 C 362.505,263.988 360.018,261.485 357.532,258.982 C 366.691,249.818 375.850,240.655 385.009,231.491 C 394.168,222.327 403.327,213.164 412.486,204 C 409.733,204 406.981,204 404.228,204 C 401.475,204 398.724,204 395.971,204 C 388.418,211.680 380.863,219.360 373.310,227.040 C 360.698,239.863 350.001,249.951 349.188,249.790 C 348.384,249.631 344.526,245.962 340.614,241.637 C 338.243,239.016 335.871,236.394 333.500,233.773 C 338.595,228.811 343.690,223.849 348.785,218.887 C 353.880,213.925 358.975,208.962 364.070,204 C 361.314,204 358.557,204 355.801,204 C 353.045,204 350.289,204 347.533,204 C 343.986,207.536 340.439,211.071 336.892,214.607 C 328.738,222.735 325.814,225.071 324.376,224.598 C 323.344,224.259 317.692,219.148 311.815,213.241 C 308.253,209.661 304.692,206.080 301.130,202.500 C 269.087,234.333 237.043,266.167 205,298 C 207.225,300.500 209.451,303 211.676,305.500 C 213.901,308 216.128,310.500 218.353,313 C 223.544,313.001 228.735,313.002 233.926,313.003 C 239.117,313.004 244.309,313.005 249.500,313.006 C 260.685,324.088 271.869,335.171 283.054,346.253 C 294.239,357.335 305.423,368.418 316.608,379.500 C 317.923,378.135 319.239,376.771 320.554,375.406 C 321.869,374.041 323.185,372.677 324.500,371.312 C 314.835,361.593 305.171,351.875 295.506,342.156 C 285.841,332.437 276.177,322.719 266.513,313 C 271.828,313 277.144,313 282.459,313 C 287.774,313 293.090,313 298.405,313 C 300.603,315 302.802,317 305,319 C 307,321 309,323 311,325 C 315.998,330.080 320.997,335.161 325.995,340.241 C 330.993,345.321 335.991,350.401 340.989,355.481 C 342.403,354.067 343.818,352.653 345.232,351.239 C 346.646,349.825 348.060,348.410 349.474,346.996 C 343.815,341.330 338.157,335.664 332.498,329.998 C 326.839,324.332 321.181,318.666 315.522,313 C 320.842,313 326.162,313 331.482,313 C 336.802,313 342.122,313 347.442,313 C 351.295,316.667 355.147,320.333 359,324 C 359.667,324.667 360.333,325.333 361,326 Z" fill="#A11811" stroke="none" />
  <path id="7" d="M 361,326 C 360.333,325.333 359.667,324.667 359,324 C 358.250,322.871 357.500,321.742 356.750,320.613 C 355.513,318.750 353.453,315.825 352.174,314.113 C 351.399,313.075 350.623,312.038 349.848,311 C 343.863,311 337.878,311 331.893,311 C 316.379,311 313.854,311.217 313.325,312.595 C 312.890,313.729 317.410,318.893 328.957,330.456 C 346.210,347.733 348.001,350.674 341.067,350.337 C 338.220,350.199 336.040,348.517 326.806,339.337 C 320.811,333.377 315.252,327.487 313,324 C 312.564,323.821 312.127,323.642 311.691,323.463 C 310.971,323.168 309.600,322.155 308.645,321.213 C 307.690,320.271 307.829,320.513 311,324 C 311,324.333 311,324.667 311,325 C 309,323 307,321 305,319 C 305.362,318.796 305.725,318.591 306.087,318.387 C 306.748,318.015 305.886,316.446 303.891,314.387 C 302.797,313.258 301.702,312.129 300.608,311 C 294.507,311 288.405,311 282.304,311 C 265.511,311 264,311.145 264,312.757 C 264,313.726 276.372,326.846 291.582,342.007 C 306.752,357.128 319.525,370.400 319.967,371.500 C 320.965,373.987 319.514,375.947 317.136,375.325 C 316.151,375.067 300.983,360.490 283.429,342.929 C 272.790,332.286 262.151,321.643 251.512,311 C 246.402,311 241.292,311 236.182,311 C 231.072,311 225.962,311 220.852,311 C 218.864,309.104 216.877,307.208 214.889,305.312 C 211.609,302.184 209.055,299.034 209.213,298.311 C 209.667,296.232 299.289,207 300.923,207 C 301.730,207 307.186,211.725 313.046,217.500 C 318.906,223.275 324.363,228 325.173,228 C 325.983,228 330.438,224.081 335.073,219.291 C 339.708,214.501 343.778,210.656 344.117,210.747 C 344.457,210.838 345.773,209.807 347.042,208.456 C 348.712,206.678 350.405,206 353.174,206 C 355.278,206 357,206.430 357,206.955 C 357,207.480 351.383,213.668 344.518,220.705 C 337.653,227.742 332.028,234.165 332.018,234.978 C 331.991,237.246 347.130,252 349.485,252 C 350.802,252 359.600,243.911 374.500,229 C 396.327,207.157 397.673,206 401.242,206 C 404.021,206 405,206.417 405,207.601 C 405,208.481 393.975,220.294 380.501,233.851 C 367.027,247.408 356.002,258.940 356.001,259.479 C 355.999,261.132 372.352,277 374.058,277 C 374.939,277 391.149,261.374 410.080,242.277 C 429.011,223.180 444.725,207.441 445,207.303 C 445.275,207.165 447.413,206.768 449.750,206.421 C 453.419,205.876 454,206.038 454,207.602 C 454,208.651 438.356,225.077 416.831,246.629 C 404.441,259.034 392.052,271.439 379.662,283.844 C 381.885,286.147 384.108,288.449 386.331,290.752 C 389.999,294.551 393,298.531 393,299.595 C 393,300.659 390.923,303.543 388.384,306.003 C 386.845,307.494 385.307,308.985 383.768,310.476 C 380.140,310.600 376.512,310.725 372.884,310.849 C 360.336,311.279 359.455,312.141 365.543,318.042 C 368.025,320.447 368.999,322.203 368.793,323.899 C 368.459,326.656 365.679,327.523 363.930,325.416 C 362.797,324.051 360.640,324.481 361,326 ZM 231.026,285.655 C 228.328,288.320 226.093,290.857 226.060,291.293 C 226.027,291.729 228.587,294.526 231.750,297.507 C 233.667,299.314 235.583,301.120 237.500,302.927 C 240.397,302.939 243.294,302.952 246.191,302.964 C 251.366,302.986 255.151,302.564 255.548,301.922 C 256.112,301.010 239.029,282.172 236.715,281.155 C 236.284,280.965 233.724,282.990 231.026,285.655 ZM 255.518,261.143 C 253.131,263.539 251.138,265.967 251.089,266.538 C 251.040,267.109 258.939,275.547 268.641,285.288 C 274.521,291.192 280.401,297.096 286.281,303 C 289.245,303 292.208,303 295.172,303 C 301.588,303 304.203,302.634 304.566,301.687 C 305.027,300.485 263.373,258.006 260.886,257.143 C 260.321,256.947 257.905,258.747 255.518,261.143 ZM 280.145,236.750 C 277.428,239.363 275.159,241.788 275.103,242.141 C 275.047,242.494 281.525,249.211 289.500,257.068 C 297.475,264.926 304,271.961 304,272.702 C 304,273.443 305.169,274.494 306.597,275.037 C 308.025,275.580 309.436,276.953 309.733,278.089 C 310.030,279.225 311.345,280.561 312.655,281.059 C 313.965,281.557 315.431,282.985 315.914,284.232 C 316.397,285.479 320.609,290.212 325.274,294.750 C 328.101,297.500 330.929,300.250 333.756,303 C 336.974,303 340.191,303 343.409,303 C 350.268,303 353.203,302.634 353.548,301.736 C 353.821,301.025 339.059,285.497 319.798,266.236 C 300.968,247.406 285.455,232 285.324,232 C 285.193,232 282.862,234.137 280.145,236.750 ZM 443.500,209 C 443.225,209 443,209.225 443,209.500 C 443,209.775 443.225,210 443.500,210 C 443.775,210 444,209.775 444,209.500 C 444,209.225 443.775,209 443.500,209 Z" fill="#FFCB74" stroke="none" />
  <path id="18" d="M 205,298 C 237.043,266.167 269.087,234.333 301.130,202.500 C 304.692,206.080 308.253,209.661 311.815,213.241 C 317.692,219.148 323.344,224.259 324.376,224.598 C 325.814,225.071 328.738,222.735 336.892,214.607 C 340.439,211.071 343.986,207.536 347.533,204 C 350.289,204 353.045,204 355.801,204 C 358.557,204 361.314,204 364.070,204 C 358.975,208.962 353.880,213.925 348.785,218.887 C 343.690,223.849 338.595,228.811 333.500,233.773 C 335.871,236.394 338.243,239.016 340.614,241.637 C 344.526,245.962 348.384,249.631 349.188,249.790 C 350.001,249.951 360.698,239.863 373.310,227.040 C 380.863,219.360 388.418,211.680 395.971,204 C 398.724,204 401.475,204 404.228,204 C 406.981,204 409.733,204 412.486,204 C 403.327,213.164 394.168,222.327 385.009,231.491 C 375.850,240.655 366.691,249.818 357.532,258.982 C 360.018,261.485 362.505,263.988 364.991,266.491 C 369.093,270.621 373.138,274 373.980,274 C 374.822,274 391.256,258.250 410.500,239 C 422.163,227.333 433.826,215.667 445.489,204 C 448.153,204 450.817,204 453.481,204 C 456.145,204 458.808,204 461.472,204 C 448.310,217.250 435.148,230.500 421.986,243.750 C 408.824,257 395.662,270.250 382.500,283.500 C 384.991,286.083 387.483,288.666 389.974,291.249 C 392.465,293.832 394.957,296.415 397.448,298.998 C 395.132,301.332 392.817,303.665 390.501,305.999 C 388.185,308.333 385.870,310.666 383.554,313 C 380.415,313 377.274,313 374.135,313 C 370.996,313 367.856,313 364.717,313 C 366.181,314.606 367.645,316.213 369.109,317.819 C 370.573,319.425 372.036,321.032 373.500,322.638 C 372.178,324.036 370.857,325.433 369.535,326.831 C 368.213,328.229 366.892,329.627 365.570,331.025 C 364.808,330.188 364.047,329.349 363.285,328.512 C 362.523,327.675 361.762,326.837 361,326 C 360.640,324.481 362.797,324.051 363.930,325.416 C 365.679,327.523 368.459,326.656 368.793,323.899 C 368.999,322.203 368.025,320.447 365.543,318.042 C 359.455,312.141 360.336,311.279 372.884,310.849 C 376.512,310.725 380.140,310.600 383.768,310.476 C 385.307,308.985 386.845,307.494 388.384,306.003 C 390.923,303.543 393,300.659 393,299.595 C 393,298.531 389.999,294.551 386.331,290.752 C 384.108,288.449 381.885,286.147 379.662,283.844 C 392.052,271.439 404.441,259.034 416.831,246.629 C 438.356,225.077 454,208.651 454,207.602 C 454,206.038 453.419,205.876 449.750,206.421 C 447.413,206.768 445.275,207.165 445,207.303 C 444.725,207.441 429.011,223.180 410.080,242.277 C 391.149,261.374 374.939,277 374.058,277 C 372.352,277 355.999,261.132 356.001,259.479 C 356.002,258.940 367.027,247.408 380.501,233.851 C 393.975,220.294 405,208.481 405,207.601 C 405,206.417 404.021,206 401.242,206 C 397.673,206 396.327,207.157 374.500,229 C 359.600,243.911 350.802,252 349.485,252 C 347.130,252 331.991,237.246 332.018,234.978 C 332.028,234.165 337.653,227.742 344.518,220.705 C 351.383,213.668 357,207.480 357,206.955 C 357,206.430 355.278,206 353.174,206 C 350.405,206 348.712,206.678 347.042,208.456 C 345.773,209.807 344.457,210.838 344.117,210.747 C 343.778,210.656 339.708,214.501 335.073,219.291 C 330.438,224.081 325.983,228 325.173,228 C 324.363,228 318.906,223.275 313.046,217.500 C 307.186,211.725 301.730,207 300.923,207 C 299.289,207 209.667,296.232 209.213,298.311 C 209.055,299.034 211.609,302.184 214.889,305.312 C 216.877,307.208 218.864,309.104 220.852,311 C 225.962,311 231.072,311 236.182,311 C 241.292,311 246.402,311 251.512,311 C 262.151,321.643 272.790,332.286 283.429,342.929 C 300.983,360.490 316.151,375.067 317.136,375.325 C 319.514,375.947 320.965,373.987 319.967,371.500 C 319.525,370.400 306.752,357.128 291.582,342.007 C 276.372,326.846 264,313.726 264,312.757 C 264,311.145 265.511,311 282.304,311 C 288.405,311 294.507,311 300.608,311 C 301.702,312.129 302.797,313.258 303.891,314.387 C 305.886,316.446 306.748,318.015 306.087,318.387 C 305.725,318.591 305.362,318.796 305,319 C 302.802,317 300.603,315 298.405,313 C 293.090,313 287.774,313 282.459,313 C 277.144,313 271.828,313 266.513,313 C 276.177,322.719 285.841,332.437 295.506,342.156 C 305.171,351.875 314.835,361.593 324.500,371.312 C 323.185,372.677 321.869,374.041 320.554,375.406 C 319.239,376.771 317.923,378.135 316.608,379.500 C 305.423,368.418 294.239,357.335 283.054,346.253 C 271.869,335.171 260.685,324.088 249.500,313.006 C 244.309,313.005 239.117,313.004 233.926,313.003 C 228.735,313.002 223.544,313.001 218.353,313 C 216.128,310.500 213.901,308 211.676,305.500 C 209.451,303 207.225,300.500 205,298 Z" fill="#FDE895" stroke="none" />
  <path id="18" d="M 280.145,236.750 C 282.862,234.137 285.193,232 285.324,232 C 285.455,232 300.968,247.406 319.798,266.236 C 339.059,285.497 353.821,301.025 353.548,301.736 C 353.203,302.634 350.268,303 343.409,303 C 340.191,303 336.974,303 333.756,303 C 330.929,300.250 328.101,297.500 325.274,294.750 C 320.609,290.212 316.397,285.479 315.914,284.232 C 315.431,282.985 313.965,281.557 312.655,281.059 C 311.345,280.561 310.030,279.225 309.733,278.089 C 309.436,276.953 308.025,275.580 306.597,275.037 C 305.169,274.494 304,273.443 304,272.702 C 304,271.961 297.475,264.926 289.500,257.068 C 281.525,249.211 275.047,242.494 275.103,242.141 C 275.159,241.788 277.428,239.363 280.145,236.750 ZM 318.737,267.232 C 307.642,256.143 296.547,245.052 285.452,233.963 C 284.048,235.393 282.646,236.824 281.242,238.254 C 279.838,239.684 278.435,241.114 277.031,242.544 C 286.792,252.301 296.555,262.059 306.316,271.816 C 316.077,281.573 325.839,291.330 335.600,301.087 C 338.337,300.989 341.074,300.892 343.811,300.794 C 346.548,300.696 349.285,300.598 352.022,300.500 C 340.927,289.411 329.832,278.321 318.737,267.232 Z" fill="#FDE895" stroke="none" />
  <path id="1" d="M 318.737,267.232 C 329.832,278.321 340.927,289.411 352.022,300.500 C 349.285,300.598 346.548,300.696 343.811,300.794 C 341.074,300.892 338.337,300.989 335.600,301.087 C 325.839,291.330 316.077,281.573 306.316,271.816 C 296.555,262.059 286.792,252.301 277.031,242.544 C 278.435,241.114 279.838,239.684 281.242,238.254 C 282.646,236.824 284.048,235.393 285.452,233.963 C 296.547,245.052 307.642,256.143 318.737,267.232 Z" fill="#A11811" stroke="none" />
  <path id="18" d="M 255.518,261.143 C 257.905,258.747 260.321,256.947 260.886,257.143 C 263.373,258.006 305.027,300.485 304.566,301.687 C 304.203,302.634 301.588,303 295.172,303 C 292.208,303 289.245,303 286.281,303 C 280.401,297.096 274.521,291.192 268.641,285.288 C 258.939,275.547 251.040,267.109 251.089,266.538 C 251.138,265.967 253.131,263.539 255.518,261.143 ZM 282.017,279.512 C 275.013,272.516 268.010,265.520 261.006,258.524 C 259.593,259.937 258.179,261.351 256.766,262.764 C 255.353,264.177 253.939,265.591 252.526,267.004 C 258.188,272.679 263.851,278.354 269.513,284.029 C 275.175,289.704 280.838,295.379 286.500,301.054 C 289.255,300.962 292.009,300.869 294.764,300.777 C 297.519,300.685 300.272,300.592 303.027,300.500 C 296.023,293.504 289.021,286.508 282.017,279.512 Z" fill="#FDE895" stroke="none" />
  <path id="18" d="M 178.253,226.353 C 186.002,218.645 193.751,210.937 201.500,203.229 C 203.922,203.441 206.344,203.652 208.766,203.864 C 211.188,204.076 213.610,204.288 216.032,204.500 C 207.195,213.330 198.357,222.159 189.520,230.989 C 180.683,239.819 171.845,248.648 163.008,257.478 C 161.675,256.145 160.340,254.811 159.007,253.478 C 157.674,252.145 156.340,250.810 155.007,249.477 C 162.756,241.769 170.504,234.061 178.253,226.353 ZM 205.219,206 C 201.626,206 200.376,207.067 180.045,227.478 C 158.828,248.779 158.666,248.973 160.514,251.015 C 161.539,252.147 162.969,252.945 163.693,252.787 C 165.636,252.363 209,208.831 209,207.304 C 209,206.462 207.660,206 205.219,206 Z" fill="#FDE895" stroke="none" />
  <path id="17" d="M 249,205 C 250,204.667 251,204.333 252,204 C 253.019,204.189 254.038,204.379 255.057,204.568 C 256.739,204.880 258.380,205.824 258.703,206.667 C 259.112,207.733 248.667,218.839 224.395,243.152 C 193.241,274.357 189.205,278.065 186.752,277.726 C 184.198,277.374 184.110,277.476 187,281 C 185.667,279.667 184.333,278.333 183,277 C 183.183,276.083 183.367,275.167 183.550,274.250 C 183.927,272.367 194.327,261.022 249,205 Z" fill="#FFCB74" stroke="none" />
  <path id="1" d="M 282.017,279.512 C 289.021,286.508 296.023,293.504 303.027,300.500 C 300.272,300.592 297.519,300.685 294.764,300.777 C 292.009,300.869 289.255,300.962 286.500,301.054 C 280.838,295.379 275.175,289.704 269.513,284.029 C 263.851,278.354 258.188,272.679 252.526,267.004 C 253.939,265.591 255.353,264.177 256.766,262.764 C 258.179,261.351 259.593,259.937 261.006,258.524 C 268.010,265.520 275.013,272.516 282.017,279.512 Z" fill="#A11811" stroke="none" />
  <path id="17" d="M 359,324 C 355.147,320.333 351.295,316.667 347.442,313 C 342.122,313 336.802,313 331.482,313 C 326.162,313 320.842,313 315.522,313 C 321.181,318.666 326.839,324.332 332.498,329.998 C 338.157,335.664 343.815,341.330 349.474,346.996 C 348.060,348.410 346.646,349.825 345.232,351.239 C 343.818,352.653 342.403,354.067 340.989,355.481 C 335.991,350.401 330.993,345.321 325.995,340.241 C 320.997,335.161 315.998,330.080 311,325 C 311,324.667 311,324.333 311,324 C 311.667,324 312.333,324 313,324 C 315.252,327.487 320.811,333.377 326.806,339.337 C 336.040,348.517 338.220,350.199 341.067,350.337 C 348.001,350.674 346.210,347.733 328.957,330.456 C 317.410,318.893 312.890,313.729 313.325,312.595 C 313.854,311.217 316.379,311 331.893,311 C 337.878,311 343.863,311 349.848,311 C 350.623,312.038 351.399,313.075 352.174,314.113 C 353.453,315.825 355.513,318.750 356.750,320.613 C 357.500,321.742 358.250,322.871 359,324 Z" fill="#FFCB74" stroke="none" />
  <path id="18" d="M 141.267,214.232 C 144.689,210.821 148.112,207.411 151.534,204 C 153.945,204 156.356,204 158.767,204 C 162.745,204 166,204.344 166,204.764 C 166,205.934 139.618,232 138.433,232 C 137.428,232 131,225.890 131,224.935 C 131,224.676 135.620,219.860 141.267,214.232 ZM 156.229,206 C 152.818,206 151.625,206.837 143.729,214.770 C 138.928,219.593 135,224.024 135,224.615 C 135,226.515 138.453,228.956 139.887,228.070 C 142.857,226.234 160,208.548 160,207.319 C 160,206.461 158.684,206 156.229,206 Z" fill="#FDE895" stroke="none" />
  <path id="18" d="M 231.026,285.655 C 233.724,282.990 236.284,280.965 236.715,281.155 C 239.029,282.172 256.112,301.010 255.548,301.922 C 255.151,302.564 251.366,302.986 246.191,302.964 C 243.294,302.952 240.397,302.939 237.500,302.927 C 235.583,301.120 233.667,299.314 231.750,297.507 C 228.587,294.526 226.027,291.729 226.060,291.293 C 226.093,290.857 228.328,288.320 231.026,285.655 ZM 245.245,291.739 C 242.309,288.819 239.374,285.898 236.438,282.978 C 235.032,284.411 233.625,285.844 232.219,287.277 C 230.813,288.710 229.406,290.142 228,291.575 C 229.609,293.160 231.219,294.746 232.828,296.331 C 234.437,297.916 236.047,299.501 237.656,301.086 C 240.389,300.988 243.121,300.891 245.854,300.793 C 248.587,300.695 251.319,300.598 254.052,300.500 C 251.116,297.580 248.181,294.659 245.245,291.739 Z" fill="#FDE895" stroke="none" />
  <path id="17" d="M 205.219,206 C 207.660,206 209,206.462 209,207.304 C 209,208.831 165.636,252.363 163.693,252.787 C 162.969,252.945 161.539,252.147 160.514,251.015 C 158.666,248.973 158.828,248.779 180.045,227.478 C 200.376,207.067 201.626,206 205.219,206 Z" fill="#FFCB74" stroke="none" />
  <path id="9" d="M 245.245,291.739 C 248.181,294.659 251.116,297.580 254.052,300.500 C 251.319,300.598 248.587,300.695 245.854,300.793 C 243.121,300.891 240.389,300.988 237.656,301.086 C 236.047,299.501 234.437,297.916 232.828,296.331 C 231.219,294.746 229.609,293.160 228,291.575 C 229.406,290.142 230.813,288.710 232.219,287.277 C 233.625,285.844 235.032,284.411 236.438,282.978 C 239.374,285.898 242.309,288.819 245.245,291.739 Z" fill="#7A1507" stroke="none" />
  <path id="18" d="M 252,204 C 256.347,204.167 260.695,204.333 265.042,204.500 C 252.035,217.250 239.028,230 226.021,242.750 C 213.014,255.500 200.007,268.250 187,281 C 184.110,277.476 184.198,277.374 186.752,277.726 C 189.205,278.065 193.241,274.357 224.395,243.152 C 248.667,218.839 259.112,207.733 258.703,206.667 C 258.380,205.824 256.739,204.880 255.057,204.568 C 254.038,204.379 253.019,204.189 252,204 Z" fill="#FDE895" stroke="none" />
  <path id="17" d="M 156.229,206 C 158.684,206 160,206.461 160,207.319 C 160,208.548 142.857,226.234 139.887,228.070 C 138.453,228.956 135,226.515 135,224.615 C 135,224.024 138.928,219.593 143.729,214.770 C 151.625,206.837 152.818,206 156.229,206 Z" fill="#FFCB74" stroke="none" />
  <path id="18" d="M 183,277 C 179.669,274.081 182.177,271.346 214.269,239.483 C 225.846,227.989 237.423,216.494 249,205 C 194.327,261.022 183.927,272.367 183.550,274.250 C 183.367,275.167 183.183,276.083 183,277 Z" fill="#FDE895" stroke="none" />
  <path id="18" d="M 311,324 C 307.829,320.513 307.690,320.271 308.645,321.213 C 309.600,322.155 310.971,323.168 311.691,323.463 C 312.127,323.642 312.564,323.821 313,324 C 312.333,324 311.667,324 311,324 Z" fill="#FDE895" stroke="none" />
  <path id="18" d="M 443.500,209 C 443.775,209 444,209.225 444,209.500 C 444,209.775 443.775,210 443.500,210 C 443.225,210 443,209.775 443,209.500 C 443,209.225 443.225,209 443.500,209 Z" fill="#FDE895" stroke="none" />
</svg>
