<?xml version="1.0" encoding="UTF-8"?>
<svg width="600" height="600" viewBox="0 0 600 600" xmlns="http://www.w3.org/2000/svg">
  <path id="3" d="M 514,224 C 534.097,204.313 540.259,198.926 540.660,199.327 C 541.061,199.728 496.176,244.843 440.916,299.582 C 407.425,332.757 373.935,365.932 340.444,399.107 C 293.287,399.100 246.129,399.093 198.972,399.086 C 151.815,399.079 104.657,399.072 57.500,399.065 C 59.992,396.554 62.483,394.044 64.975,391.533 C 69.086,387.390 73.051,384 73.785,384 C 75.504,384 86,374.100 86,372.479 C 86,370.760 102.942,356 104.915,356 C 107.024,356 119,346.301 119,344.593 C 119,343.141 141.501,326.110 161,312.803 C 185.872,295.829 225.631,273 230.321,273 C 233.516,273 254,263.005 254,261.446 C 254,259.040 303.271,238.735 306.842,239.669 C 309.269,240.304 328.934,233.408 331.488,231.026 C 335.798,227.007 389.475,213.260 423.068,207.572 C 446.890,203.538 459.335,202.077 460.662,203.155 C 462.300,204.486 477.148,203.048 479.078,201.372 C 481.377,199.375 501.280,198.277 504.447,199.972 C 507.089,201.386 519.528,200.575 520.549,198.922 C 520.862,198.415 525.231,198 530.259,198 C 536.486,198 539.018,198.319 538.200,199 C 537.800,199.333 537.400,199.667 537,200 C 534.688,200 532.375,200 530.063,200 C 527.751,200 525.438,200 523.126,200 C 509.751,213.667 496.375,227.333 483,241 C 476.667,247.333 470.333,253.667 464,260 C 460.993,263.054 457.987,266.108 454.980,269.162 C 451.973,272.216 448.967,275.270 445.960,278.324 C 420.307,277.883 394.653,277.441 369,277 C 366.333,279.667 363.667,282.333 361,285 C 353.081,292.989 345.161,300.977 337.242,308.966 C 329.323,316.955 321.403,324.942 313.484,332.931 C 300.653,332.739 287.823,332.547 274.992,332.355 C 262.161,332.163 249.331,331.971 236.500,331.779 C 229.333,339.186 222.167,346.593 215,354 C 210,359.333 205,364.667 200,370 C 197.014,372.896 194.027,375.792 191.041,378.688 C 182.564,386.909 181.851,387.374 177.791,387.330 C 175.431,387.305 150.887,387.220 73,387 C 72,388 71,389 70,390 C 69.126,390.799 68.251,391.597 67.377,392.396 C 65.934,393.714 65.061,395.289 65.436,395.896 C 65.922,396.683 84.442,397 129.863,397 C 151.111,397 172.360,397 193.608,397 C 195.739,394.667 197.869,392.333 200,390 C 213.667,376 227.333,362 241,348 C 254.250,347.841 267.500,347.682 280.750,347.523 C 294,347.364 307.250,347.204 320.500,347.045 C 329.527,337.825 338.555,328.606 347.582,319.386 C 356.609,310.166 365.637,300.948 374.664,291.728 C 386.303,291.899 397.943,292.069 409.582,292.240 C 421.221,292.411 432.861,292.581 444.500,292.752 C 467.667,269.835 490.833,246.917 514,224 ZM 81.948,379.547 C 80.870,380.523 80.103,381.421 80.244,381.543 C 80.385,381.665 102.771,382.095 129.990,382.497 C 146.487,382.741 162.983,382.984 179.480,383.228 C 188.546,373.940 197.611,364.652 206.677,355.364 C 215.743,346.076 224.809,336.788 233.875,327.500 C 246.813,327.607 259.749,327.715 272.687,327.822 C 285.625,327.929 298.562,328.037 311.500,328.144 C 320.667,318.946 329.833,309.749 339,300.551 C 348.167,291.353 357.333,282.157 366.500,272.959 C 379.435,272.995 392.369,273.032 405.304,273.068 C 418.239,273.104 431.174,273.141 444.109,273.177 C 455.713,261.398 467.316,249.617 478.920,237.838 C 511.096,205.175 513.519,202.476 510.917,202.190 C 508.655,201.941 507.365,202.727 504.353,206.190 C 502.291,208.560 487.531,223.708 471.552,239.851 C 461.868,249.635 452.184,259.417 442.500,269.201 C 429.683,268.971 416.866,268.741 404.049,268.511 C 391.232,268.281 378.415,268.050 365.598,267.820 C 356.540,277.100 347.481,286.380 338.423,295.660 C 329.365,304.940 320.306,314.220 311.248,323.500 C 298.290,323.380 285.332,323.259 272.374,323.139 C 259.416,323.019 246.458,322.898 233.500,322.778 C 224.334,331.998 215.168,341.217 206.002,350.437 C 196.836,359.657 187.671,368.876 178.505,378.096 C 162.739,378.042 146.973,377.988 131.207,377.934 C 87.186,377.783 83.773,377.896 81.948,379.547 ZM 96.505,365.462 C 92.332,369.196 89.049,372.359 89.209,372.488 C 89.369,372.617 109.077,372.997 133.006,373.332 C 147.508,373.535 162.011,373.738 176.513,373.941 C 184.805,365.367 193.096,356.795 201.388,348.221 C 215.069,334.075 227.635,321.500 229.311,320.279 C 230.327,319.539 231.343,318.798 232.359,318.058 C 245.039,318.267 257.719,318.478 270.399,318.687 C 283.079,318.896 295.758,319.106 308.438,319.315 C 317.450,310.061 326.463,300.807 335.475,291.553 C 344.487,282.299 353.500,273.044 362.512,263.790 C 375.520,263.840 388.530,263.890 401.538,263.940 C 414.546,263.990 427.555,264.039 440.563,264.089 C 450.886,253.657 461.209,243.227 471.532,232.795 C 481.855,222.363 492.177,211.932 502.500,201.500 C 499.667,201.601 496.833,201.701 494,201.802 C 489.325,201.968 484.266,202.340 482.758,202.629 C 480.832,202.998 473.321,210.052 457.521,226.328 C 450.023,234.052 442.524,241.776 435.026,249.500 C 422.069,249.374 409.111,249.249 396.154,249.123 C 383.197,248.997 370.239,248.873 357.282,248.747 C 348.187,257.956 339.094,267.164 329.999,276.373 C 320.904,285.582 311.810,294.791 302.715,304 C 289.653,304 276.590,304 263.528,304 C 250.466,304 237.403,304 224.341,304 C 215.399,313.190 206.457,322.379 197.515,331.569 C 188.573,340.759 179.630,349.947 170.688,359.137 C 159.589,359.060 148.489,358.982 137.390,358.905 C 126.291,358.828 115.191,358.750 104.092,358.673 C 101.563,360.936 99.034,363.199 96.505,365.462 ZM 115.118,350.937 C 113.835,351.624 113.171,352.536 113.643,352.965 C 114.115,353.394 126.425,354.046 141,354.415 C 149.833,354.639 158.667,354.862 167.500,355.086 C 176.689,345.694 185.877,336.302 195.066,326.910 C 204.255,317.518 213.443,308.126 222.632,298.734 C 235.549,298.982 248.465,299.230 261.382,299.478 C 274.299,299.726 287.215,299.975 300.132,300.223 C 302.539,297.769 304.946,295.315 307.353,292.861 C 311.325,288.812 323.514,276.275 334.440,265 C 341.062,258.167 347.685,251.333 354.307,244.500 C 367.292,244.622 380.277,244.744 393.262,244.866 C 406.247,244.988 419.232,245.109 432.217,245.231 C 438.598,238.652 444.977,232.073 451.358,225.494 C 461.886,214.638 470.657,205.342 470.848,204.835 C 471.043,204.319 470.043,204.202 468.576,204.570 C 467.009,204.963 458.963,212.313 448.554,222.857 C 442.753,228.733 436.951,234.610 431.150,240.486 C 418.184,240.372 405.217,240.257 392.251,240.143 C 379.285,240.029 366.318,239.915 353.352,239.801 C 344.383,249.001 335.412,258.200 326.443,267.400 C 317.474,276.600 308.504,285.800 299.535,295 C 286.516,295 273.498,295 260.479,295 C 247.460,295 234.442,295 221.423,295 C 212.271,304.190 203.119,313.379 193.967,322.569 C 184.815,331.759 175.664,340.948 166.512,350.138 C 158.335,350.063 150.158,349.988 141.981,349.913 C 123.915,349.747 116.836,350.018 115.118,350.937 ZM 134.554,334.880 C 130.239,338.087 125.923,341.293 121.608,344.500 C 128.090,344.667 134.572,344.833 141.054,345 C 151.749,345.275 161.663,345.348 163.084,345.161 C 164.939,344.918 172.830,337.440 191.051,318.661 C 205.011,304.273 217.569,291.866 218.957,291.092 C 221.061,289.918 227.710,289.791 258.946,290.329 C 271.434,290.544 283.922,290.760 296.410,290.975 C 305.592,281.641 314.773,272.308 323.955,262.974 C 333.137,253.640 342.318,244.306 351.500,234.972 C 364.500,235.191 377.500,235.410 390.500,235.629 C 403.500,235.848 416.500,236.066 429.500,236.285 C 434.448,231.071 439.397,225.857 444.345,220.643 C 452.510,212.040 458.810,205.002 458.345,205.004 C 457.880,205.006 449.715,206.140 440.200,207.524 C 410.428,211.854 383.248,217.770 350,227.159 C 345.167,228.524 340.333,229.888 335.500,231.253 C 327.970,238.738 320.440,246.224 312.910,253.709 C 305.380,261.194 297.850,268.679 290.320,276.164 C 280.003,276.072 269.686,275.979 259.369,275.887 C 249.052,275.795 238.734,275.702 228.417,275.610 C 225.431,277.224 222.445,278.839 219.459,280.453 C 190.623,296.039 162.969,313.766 134.554,334.880 ZM 220.994,375.500 C 213.882,382.833 206.768,390.167 199.656,397.500 C 201.213,397.602 202.771,397.703 204.328,397.805 C 208.630,398.086 209,397.926 209,395.799 C 209,394.162 214.276,388.020 227.121,374.705 C 233.161,368.443 239.202,362.182 245.242,355.920 C 258.285,355.964 271.328,356.007 284.371,356.051 C 297.414,356.095 310.457,356.138 323.500,356.182 C 332.627,346.942 341.753,337.701 350.880,328.461 C 360.007,319.221 369.133,309.980 378.260,300.740 C 387.265,300.892 396.272,301.044 405.277,301.196 C 414.282,301.348 423.288,301.500 432.293,301.652 C 433.161,300.887 434.029,300.123 434.897,299.358 C 435.765,298.593 436.632,297.828 437.500,297.063 C 430,296.970 422.500,296.878 415,296.785 C 402.625,296.632 388.983,296.506 384.685,296.504 C 382.080,296.503 379.476,296.501 376.871,296.500 C 367.802,305.792 358.734,315.083 349.665,324.375 C 340.596,333.667 331.528,342.957 322.459,352.249 C 309.799,352.031 297.140,351.813 284.480,351.595 C 254.464,351.078 246.063,351.210 244.416,352.221 C 243.270,352.925 232.730,363.400 220.994,375.500 ZM 219,391 C 217.333,392 215.667,393 214,394 C 214.156,394.500 214.313,395 214.469,395.500 C 214.839,396.684 216.790,397 223.739,397 C 226.673,397 229.608,397 232.542,397 C 238.361,391 244.181,385 250,379 C 251,378 252,377 253,376 C 266.207,375.917 279.414,375.833 292.621,375.750 C 305.828,375.667 319.035,375.583 332.242,375.500 C 341.165,366.333 350.087,357.167 359.010,348 C 367.933,338.833 376.855,329.667 385.778,320.500 C 396.519,320 407.259,319.500 418,319 C 420.333,316.667 422.667,314.333 425,312 C 425.667,311.407 426.333,310.815 427,310.222 C 431.343,306.362 430.039,306.113 404.520,305.919 C 396.360,305.857 388.200,305.795 380.040,305.733 C 366.360,319.822 352.680,333.911 339,348 C 335.333,351.667 331.667,355.333 328,359 C 327.583,359.374 327.167,359.748 326.750,360.122 C 325.847,360.933 314.804,361.077 286.935,360.641 C 274.080,360.440 261.225,360.238 248.370,360.037 C 245.913,362.691 243.457,365.346 241,368 C 233.667,375.667 226.333,383.333 219,391 ZM 247.394,388.750 C 244.646,391.667 241.898,394.583 239.150,397.500 C 240.625,397.602 242.100,397.703 243.575,397.805 C 247.672,398.087 248,397.931 248,395.692 C 248,394.074 249.690,391.692 253.113,388.491 C 254.817,386.897 256.523,385.302 258.227,383.708 C 270.996,383.949 283.765,384.189 296.534,384.430 C 309.303,384.671 322.072,384.911 334.841,385.152 C 344.118,375.786 353.393,366.421 362.670,357.055 C 371.947,347.689 381.223,338.324 390.500,328.958 C 392.781,328.965 395.061,328.972 397.342,328.979 C 402.692,328.995 404.739,328.564 406.727,327 C 407.575,326.333 408.422,325.667 409.270,325 C 405.808,324.994 402.347,324.989 398.885,324.983 C 395.423,324.977 391.962,324.972 388.500,324.966 C 379.496,334.181 370.492,343.396 361.488,352.611 C 352.484,361.826 343.480,371.042 334.476,380.257 C 321.980,380.163 309.484,380.069 296.988,379.975 C 276.370,379.820 258.631,379.763 257.569,379.847 C 256.507,379.931 251.928,383.938 247.394,388.750 ZM 247.895,267.053 C 245.622,268.213 244.153,269.518 244.631,269.954 C 245.109,270.390 254.910,271.042 266.410,271.403 C 273.380,271.622 280.349,271.841 287.319,272.060 C 292.839,266.568 298.360,261.076 303.880,255.584 C 312.988,246.522 320.127,238.793 319.743,238.409 C 319.359,238.025 316.980,238.499 314.457,239.463 C 311.327,240.658 309.556,242.038 308.885,243.803 C 308.344,245.226 303.338,251.027 297.761,256.695 C 294.381,260.130 291,263.565 287.620,267 C 282.328,267 277.036,267 271.744,267 C 262.788,267 255.031,266.552 253.948,265.972 C 252.489,265.191 251.036,265.450 247.895,267.053 ZM 256.444,392.054 C 254.593,393.848 253.312,395.695 253.598,396.158 C 253.884,396.621 273.312,397 296.772,397 C 310.990,397 325.209,397 339.427,397 C 349.866,386.583 360.304,376.167 370.743,365.750 C 381.182,355.333 391.620,344.917 402.059,334.500 C 400.278,334.402 398.497,334.304 396.716,334.206 C 394.935,334.108 393.155,334.009 391.374,333.911 C 389.573,335.842 387.772,337.775 385.971,339.706 C 383,342.893 371.034,355.308 359.379,367.296 C 352.316,374.561 345.252,381.826 338.189,389.091 C 325.126,389.041 312.062,388.991 298.999,388.941 C 285.936,388.891 272.873,388.842 259.810,388.792 C 258.688,389.880 257.566,390.966 256.444,392.054 ZM 270.725,255.725 C 263.699,258.782 258.074,261.385 258.225,261.510 C 258.376,261.635 264.344,261.978 271.487,262.273 C 275.816,262.452 280.145,262.630 284.474,262.809 C 287.744,259.596 291.015,256.384 294.285,253.171 C 299.681,247.870 303.700,243.400 303.217,243.239 C 302.075,242.858 286.848,248.710 270.725,255.725 Z" fill="#7F1A0B" stroke="none" />
  <path id="26" d="M 96.505,365.462 C 99.034,363.199 101.563,360.936 104.092,358.673 C 115.191,358.750 126.291,358.828 137.390,358.905 C 148.489,358.982 159.589,359.060 170.688,359.137 C 179.630,349.947 188.573,340.759 197.515,331.569 C 206.457,322.379 215.399,313.190 224.341,304 C 237.403,304 250.466,304 263.528,304 C 276.590,304 289.653,304 302.715,304 C 311.810,294.791 320.904,285.582 329.999,276.373 C 339.094,267.164 348.187,257.956 357.282,248.747 C 370.239,248.873 383.197,248.997 396.154,249.123 C 409.111,249.249 422.069,249.374 435.026,249.500 C 442.524,241.776 450.023,234.052 457.521,226.328 C 473.321,210.052 480.832,202.998 482.758,202.629 C 484.266,202.340 489.325,201.968 494,201.802 C 496.833,201.701 499.667,201.601 502.500,201.500 C 492.177,211.932 481.855,222.363 471.532,232.795 C 461.209,243.227 450.886,253.657 440.563,264.089 C 427.555,264.039 414.546,263.990 401.538,263.940 C 388.530,263.890 375.520,263.840 362.512,263.790 C 353.500,273.044 344.487,282.299 335.475,291.553 C 326.463,300.807 317.450,310.061 308.438,319.315 C 295.758,319.106 283.079,318.896 270.399,318.687 C 257.719,318.478 245.039,318.267 232.359,318.058 C 231.343,318.798 230.327,319.539 229.311,320.279 C 227.635,321.500 215.069,334.075 201.388,348.221 C 193.096,356.795 184.805,365.367 176.513,373.941 C 162.011,373.738 147.508,373.535 133.006,373.332 C 109.077,372.997 89.369,372.617 89.209,372.488 C 89.049,372.359 92.332,369.196 96.505,365.462 ZM 487.365,206 C 485.787,206 484.208,206 482.630,206 C 474.942,213.859 467.253,221.717 459.565,229.576 C 451.877,237.435 444.188,245.293 436.500,253.152 C 423.387,253.077 410.274,253.003 397.161,252.928 C 384.048,252.853 370.935,252.778 357.822,252.703 C 348.757,261.971 339.692,271.238 330.627,280.506 C 321.562,289.774 312.497,299.042 303.432,308.310 C 290.610,308.087 277.788,307.865 264.966,307.642 C 252.144,307.419 239.322,307.197 226.500,306.974 C 217.466,316.228 208.433,325.483 199.399,334.737 C 190.365,343.991 181.331,353.246 172.297,362.500 C 161.301,362.380 150.304,362.260 139.308,362.140 C 128.312,362.020 117.315,361.901 106.319,361.781 C 105.045,362.900 103.770,364.018 102.496,365.137 C 101.222,366.256 99.947,367.375 98.673,368.494 C 99.811,368.673 100.949,368.851 102.087,369.030 C 103.964,369.325 121.250,369.688 140.500,369.839 C 152.167,369.930 163.833,370.022 175.500,370.113 C 183.597,361.677 191.694,353.243 199.791,344.807 C 213.151,330.888 225.505,318.471 227.245,317.212 C 228.300,316.449 229.355,315.686 230.410,314.923 C 243.258,314.969 256.107,315.014 268.955,315.060 C 281.803,315.106 294.652,315.151 307.500,315.197 C 316.384,306.081 325.267,296.964 334.151,287.848 C 343.035,278.732 351.918,269.616 360.802,260.500 C 373.937,260.500 387.073,260.500 400.208,260.500 C 413.343,260.500 426.479,260.500 439.614,260.500 C 448.095,251.878 456.576,243.257 465.057,234.635 C 479.051,220.409 490.860,208.147 491.300,207.385 C 491.934,206.287 491.118,206 487.365,206 Z" fill="#F9E894" stroke="none" />
  <path id="26" d="M 134.554,334.880 C 162.969,313.766 190.623,296.039 219.459,280.453 C 222.445,278.839 225.431,277.224 228.417,275.610 C 238.734,275.702 249.052,275.795 259.369,275.887 C 269.686,275.979 280.003,276.072 290.320,276.164 C 297.850,268.679 305.380,261.194 312.910,253.709 C 320.440,246.224 327.970,238.738 335.500,231.253 C 340.333,229.888 345.167,228.524 350,227.159 C 383.248,217.770 410.428,211.854 440.200,207.524 C 449.715,206.140 457.880,205.006 458.345,205.004 C 458.810,205.002 452.510,212.040 444.345,220.643 C 439.397,225.857 434.448,231.071 429.500,236.285 C 416.500,236.066 403.500,235.848 390.500,235.629 C 377.500,235.410 364.500,235.191 351.500,234.972 C 342.318,244.306 333.137,253.640 323.955,262.974 C 314.773,272.308 305.592,281.641 296.410,290.975 C 283.922,290.760 271.434,290.544 258.946,290.329 C 227.710,289.791 221.061,289.918 218.957,291.092 C 217.569,291.866 205.011,304.273 191.051,318.661 C 172.830,337.440 164.939,344.918 163.084,345.161 C 161.663,345.348 151.749,345.275 141.054,345 C 134.572,344.833 128.090,344.667 121.608,344.500 C 125.923,341.293 130.239,338.087 134.554,334.880 ZM 443.750,210.582 C 414.159,214.797 374.945,223.383 346.602,231.854 C 343.303,232.840 340.003,233.827 336.704,234.813 C 329.248,242.261 321.792,249.708 314.336,257.156 C 306.880,264.604 299.424,272.052 291.968,279.500 C 281.684,279.379 271.401,279.259 261.117,279.138 C 250.833,279.017 240.550,278.896 230.266,278.775 C 226.638,280.779 223.011,282.785 219.383,284.789 C 192.608,299.583 171.191,312.891 151.500,326.969 C 134.521,339.108 133,340.277 133,341.188 C 133,341.635 139.659,342 147.798,342 C 152.731,342 157.663,342 162.596,342 C 170.413,334.095 178.231,326.190 186.048,318.285 C 198.947,305.242 211.142,292.928 213.149,290.921 C 215.156,288.914 217.919,287.058 219.289,286.796 C 220.659,286.534 238.355,286.533 258.615,286.794 C 270.894,286.952 283.172,287.110 295.451,287.268 C 304.459,278.036 313.467,268.805 322.475,259.573 C 331.483,250.341 340.492,241.110 349.500,231.878 C 362.451,231.942 375.402,232.005 388.353,232.069 C 401.304,232.133 414.254,232.196 427.205,232.260 C 430.671,228.806 434.137,225.352 437.603,221.898 C 443.322,216.199 448,211.185 448,210.756 C 448,210.327 446.087,210.249 443.750,210.582 Z" fill="#F9E894" stroke="none" />
  <path id="25" d="M 241,348 C 227.333,362 213.667,376 200,390 C 193.903,394.344 193.826,394.347 132.873,394.465 C 77.664,394.572 71.765,394.430 70.984,392.970 C 70.509,392.082 70.350,391.051 70.631,390.678 C 70.912,390.305 70.885,390 70.571,390 C 70.381,390 70.190,390 70,390 C 71,389 72,388 73,387 C 72.845,387.282 72.691,387.565 72.536,387.847 C 72.281,388.313 96.732,388.998 126.873,389.370 C 145.140,389.595 163.408,389.820 181.675,390.045 C 184.813,386.851 187.949,383.658 191.087,380.464 C 196.264,375.194 200.387,370.684 200,370 C 205,364.667 210,359.333 215,354 C 218.516,350.750 222.031,347.500 225.547,344.250 C 229.063,341 232.579,337.750 236.095,334.500 C 249.403,334.500 262.712,334.500 276.020,334.500 C 289.328,334.500 302.636,334.500 315.944,334.500 C 318.601,331.860 321.258,329.220 323.915,326.580 C 328.299,322.224 331.799,318.285 331.693,317.827 C 331.587,317.369 338.025,310.583 346,302.747 C 353.975,294.911 362.042,286.475 363.926,284 C 365.068,282.500 366.210,281 367.352,279.500 C 365.235,281.333 363.117,283.167 361,285 C 363.667,282.333 366.333,279.667 369,277 C 368.637,277.487 368.273,277.974 367.910,278.461 C 366.959,279.735 371.712,279.938 405.120,280.044 C 426.185,280.111 444.563,279.875 445.960,279.520 C 447.509,279.126 455.302,271.580 465.927,260.187 C 478.992,246.178 480.932,243.815 464,260 C 470.333,253.667 476.667,247.333 483,241 C 483,241.224 483,241.449 483,241.673 C 483,242.043 492.112,233.517 503.250,222.725 C 519.365,207.110 524.062,203.092 526.250,203.051 C 527.772,203.023 529,203.543 529,204.217 C 529,204.887 515.368,219.174 498.708,235.967 C 482.048,252.760 463.260,271.816 456.958,278.314 C 453.139,282.252 449.319,286.190 445.500,290.128 C 433.615,290.031 421.729,289.933 409.844,289.836 C 397.959,289.739 386.073,289.640 374.188,289.543 C 364.959,298.835 355.730,308.126 346.501,317.418 C 337.272,326.710 328.042,336.001 318.813,345.293 C 306.573,345.062 294.332,344.832 282.092,344.601 C 243.432,343.872 238.809,344.254 241,348 ZM 214.500,355 C 214.225,355 214,355.225 214,355.500 C 214,355.775 214.225,356 214.500,356 C 214.775,356 215,355.775 215,355.500 C 215,355.225 214.775,355 214.500,355 ZM 240,348.500 C 240,348.225 239.775,348 239.500,348 C 239.225,348 239,348.225 239,348.500 C 239,348.775 239.225,349 239.500,349 C 239.775,349 240,348.775 240,348.500 Z" fill="#FFCB74" stroke="none" />
  <path id="25" d="M 487.365,206 C 491.118,206 491.934,206.287 491.300,207.385 C 490.860,208.147 479.051,220.409 465.057,234.635 C 456.576,243.257 448.095,251.878 439.614,260.500 C 426.479,260.500 413.343,260.500 400.208,260.500 C 387.073,260.500 373.937,260.500 360.802,260.500 C 351.918,269.616 343.035,278.732 334.151,287.848 C 325.267,296.964 316.384,306.081 307.500,315.197 C 294.652,315.151 281.803,315.106 268.955,315.060 C 256.107,315.014 243.258,314.969 230.410,314.923 C 229.355,315.686 228.300,316.449 227.245,317.212 C 225.505,318.471 213.151,330.888 199.791,344.807 C 191.694,353.243 183.597,361.677 175.500,370.113 C 163.833,370.022 152.167,369.930 140.500,369.839 C 121.250,369.688 103.964,369.325 102.087,369.030 C 100.949,368.851 99.811,368.673 98.673,368.494 C 99.947,367.375 101.222,366.256 102.496,365.137 C 103.770,364.018 105.045,362.900 106.319,361.781 C 117.315,361.901 128.312,362.020 139.308,362.140 C 150.304,362.260 161.301,362.380 172.297,362.500 C 181.331,353.246 190.365,343.991 199.399,334.737 C 208.433,325.483 217.466,316.228 226.500,306.974 C 239.322,307.197 252.144,307.419 264.966,307.642 C 277.788,307.865 290.610,308.087 303.432,308.310 C 312.497,299.042 321.562,289.774 330.627,280.506 C 339.692,271.238 348.757,261.971 357.822,252.703 C 370.935,252.778 384.048,252.853 397.161,252.928 C 410.274,253.003 423.387,253.077 436.500,253.152 C 444.188,245.293 451.877,237.435 459.565,229.576 C 467.253,221.717 474.942,213.859 482.630,206 C 484.208,206 485.787,206 487.365,206 Z" fill="#FFCB74" stroke="none" />
  <path id="25" d="M 443.750,210.582 C 446.087,210.249 448,210.327 448,210.756 C 448,211.185 443.322,216.199 437.603,221.898 C 434.137,225.352 430.671,228.806 427.205,232.260 C 414.254,232.196 401.304,232.133 388.353,232.069 C 375.402,232.005 362.451,231.942 349.500,231.878 C 340.492,241.110 331.483,250.341 322.475,259.573 C 313.467,268.805 304.459,278.036 295.451,287.268 C 283.172,287.110 270.894,286.952 258.615,286.794 C 238.355,286.533 220.659,286.534 219.289,286.796 C 217.919,287.058 215.156,288.914 213.149,290.921 C 211.142,292.928 198.947,305.242 186.048,318.285 C 178.231,326.190 170.413,334.095 162.596,342 C 157.663,342 152.731,342 147.798,342 C 139.659,342 133,341.635 133,341.188 C 133,340.277 134.521,339.108 151.500,326.969 C 171.191,312.891 192.608,299.583 219.383,284.789 C 223.011,282.785 226.638,280.779 230.266,278.775 C 240.550,278.896 250.833,279.017 261.117,279.138 C 271.401,279.259 281.684,279.379 291.968,279.500 C 299.424,272.052 306.880,264.604 314.336,257.156 C 321.792,249.708 329.248,242.261 336.704,234.813 C 340.003,233.827 343.303,232.840 346.602,231.854 C 374.945,223.383 414.159,214.797 443.750,210.582 Z" fill="#FFCB74" stroke="none" />
  <path id="25" d="M 219,391 C 226.333,383.333 233.667,375.667 241,368 C 242.250,367.083 243.500,366.167 244.750,365.250 C 246,364.333 247.250,363.417 248.500,362.500 C 261,362.667 273.500,362.835 286,363.002 C 316.119,363.405 324.133,363.239 326.717,362.154 C 328.486,361.411 329.836,360.479 329.717,360.083 C 329.598,359.687 341.200,347.826 355.500,333.725 C 364.167,325.179 372.833,316.634 381.500,308.088 C 388.209,308.073 394.919,308.059 401.628,308.044 C 420.577,308.003 421.851,308.117 425,312 C 422.667,314.333 420.333,316.667 418,319 C 419.083,317.750 420.167,316.500 421.250,315.250 C 422.333,314 423.417,312.750 424.500,311.500 C 423.317,312.583 422.135,313.667 420.952,314.750 C 419.769,315.833 418.588,316.917 417.405,318 C 412.098,318 406.792,318 401.485,318 C 396.178,318 390.871,318 385.564,318 C 378.801,324.917 372.039,331.833 365.276,338.750 C 354.118,350.163 342.179,362.550 338.746,366.278 C 336.665,368.537 334.584,370.796 332.503,373.055 C 319.421,373.025 306.340,372.995 293.258,372.965 C 271.673,372.915 253.535,373.169 252.953,373.529 C 252.371,373.889 252.143,374.592 253,376 C 252,377 251,378 250,379 C 244.293,384.167 238.586,389.333 232.879,394.500 C 230.593,394.500 228.308,394.500 226.022,394.500 C 220.190,394.500 219.153,394.238 219.083,392.750 C 219.055,392.167 219.028,391.583 219,391 ZM 250.500,378 C 250.775,378 251,377.775 251,377.500 C 251,377.225 250.775,377 250.500,377 C 250.225,377 250,377.225 250,377.500 C 250,377.775 250.225,378 250.500,378 ZM 251.500,376 C 251.225,376 251,376.225 251,376.500 C 251,376.775 251.225,377 251.500,377 C 251.775,377 252,376.775 252,376.500 C 252,376.225 251.775,376 251.500,376 ZM 240.500,369 C 240.225,369 240,369.225 240,369.500 C 240,369.775 240.225,370 240.500,370 C 240.775,370 241,369.775 241,369.500 C 241,369.225 240.775,369 240.500,369 Z" fill="#FFCB74" stroke="none" />
  <path id="20" d="M 81.948,379.547 C 83.773,377.896 87.186,377.783 131.207,377.934 C 146.973,377.988 162.739,378.042 178.505,378.096 C 187.671,368.876 196.836,359.657 206.002,350.437 C 215.168,341.217 224.334,331.998 233.500,322.778 C 246.458,322.898 259.416,323.019 272.374,323.139 C 285.332,323.259 298.290,323.380 311.248,323.500 C 320.306,314.220 329.365,304.940 338.423,295.660 C 347.481,286.380 356.540,277.100 365.598,267.820 C 378.415,268.050 391.232,268.281 404.049,268.511 C 416.866,268.741 429.683,268.971 442.500,269.201 C 452.184,259.417 461.868,249.635 471.552,239.851 C 487.531,223.708 502.291,208.560 504.353,206.190 C 507.365,202.727 508.655,201.941 510.917,202.190 C 513.519,202.476 511.096,205.175 478.920,237.838 C 467.316,249.617 455.713,261.398 444.109,273.177 C 431.174,273.141 418.239,273.104 405.304,273.068 C 392.369,273.032 379.435,272.995 366.500,272.959 C 357.333,282.157 348.167,291.353 339,300.551 C 329.833,309.749 320.667,318.946 311.500,328.144 C 298.562,328.037 285.625,327.929 272.687,327.822 C 259.749,327.715 246.813,327.607 233.875,327.500 C 224.809,336.788 215.743,346.076 206.677,355.364 C 197.611,364.652 188.546,373.940 179.480,383.228 C 162.983,382.984 146.487,382.741 129.990,382.497 C 102.771,382.095 80.385,381.665 80.244,381.543 C 80.103,381.421 80.870,380.523 81.948,379.547 Z" fill="#A11811" stroke="none" />
  <path id="20" d="M 115.118,350.937 C 116.836,350.018 123.915,349.747 141.981,349.913 C 150.158,349.988 158.335,350.063 166.512,350.138 C 175.664,340.948 184.815,331.759 193.967,322.569 C 203.119,313.379 212.271,304.190 221.423,295 C 234.442,295 247.460,295 260.479,295 C 273.498,295 286.516,295 299.535,295 C 308.504,285.800 317.474,276.600 326.443,267.400 C 335.412,258.200 344.383,249.001 353.352,239.801 C 366.318,239.915 379.285,240.029 392.251,240.143 C 405.217,240.257 418.184,240.372 431.150,240.486 C 436.951,234.610 442.753,228.733 448.554,222.857 C 458.963,212.313 467.009,204.963 468.576,204.570 C 470.043,204.202 471.043,204.319 470.848,204.835 C 470.657,205.342 461.886,214.638 451.358,225.494 C 444.977,232.073 438.598,238.652 432.217,245.231 C 419.232,245.109 406.247,244.988 393.262,244.866 C 380.277,244.744 367.292,244.622 354.307,244.500 C 347.685,251.333 341.062,258.167 334.440,265 C 323.514,276.275 311.325,288.812 307.353,292.861 C 304.946,295.315 302.539,297.769 300.132,300.223 C 287.215,299.975 274.299,299.726 261.382,299.478 C 248.465,299.230 235.549,298.982 222.632,298.734 C 213.443,308.126 204.255,317.518 195.066,326.910 C 185.877,336.302 176.689,345.694 167.500,355.086 C 158.667,354.862 149.833,354.639 141,354.415 C 126.425,354.046 114.115,353.394 113.643,352.965 C 113.171,352.536 113.835,351.624 115.118,350.937 Z" fill="#A11811" stroke="none" />
  <path id="26" d="M 256.444,392.054 C 257.566,390.966 258.688,389.880 259.810,388.792 C 272.873,388.842 285.936,388.891 298.999,388.941 C 312.062,388.991 325.126,389.041 338.189,389.091 C 345.252,381.826 352.316,374.561 359.379,367.296 C 371.034,355.308 383,342.893 385.971,339.706 C 387.772,337.775 389.573,335.842 391.374,333.911 C 393.155,334.009 394.935,334.108 396.716,334.206 C 398.497,334.304 400.278,334.402 402.059,334.500 C 391.620,344.917 381.182,355.333 370.743,365.750 C 360.304,376.167 349.866,386.583 339.427,397 C 325.209,397 310.990,397 296.772,397 C 273.312,397 253.884,396.621 253.598,396.158 C 253.312,395.695 254.593,393.848 256.444,392.054 ZM 369.227,362 C 367.793,362 352.599,377.933 353.333,378.667 C 353.733,379.067 357.647,375.828 362.030,371.470 C 369.530,364.014 371.061,362 369.227,362 Z" fill="#F9E894" stroke="none" />
  <path id="20" d="M 220.994,375.500 C 232.730,363.400 243.270,352.925 244.416,352.221 C 246.063,351.210 254.464,351.078 284.480,351.595 C 297.140,351.813 309.799,352.031 322.459,352.249 C 331.528,342.957 340.596,333.667 349.665,324.375 C 358.734,315.083 367.802,305.792 376.871,296.500 C 379.476,296.501 382.080,296.503 384.685,296.504 C 388.983,296.506 402.625,296.632 415,296.785 C 422.500,296.878 430,296.970 437.500,297.063 C 436.632,297.828 435.765,298.593 434.897,299.358 C 434.029,300.123 433.161,300.887 432.293,301.652 C 423.288,301.500 414.282,301.348 405.277,301.196 C 396.272,301.044 387.265,300.892 378.260,300.740 C 369.133,309.980 360.007,319.221 350.880,328.461 C 341.753,337.701 332.627,346.942 323.500,356.182 C 310.457,356.138 297.414,356.095 284.371,356.051 C 271.328,356.007 258.285,355.964 245.242,355.920 C 239.202,362.182 233.161,368.443 227.121,374.705 C 214.276,388.020 209,394.162 209,395.799 C 209,397.926 208.630,398.086 204.328,397.805 C 202.771,397.703 201.213,397.602 199.656,397.500 C 206.768,390.167 213.882,382.833 220.994,375.500 Z" fill="#A11811" stroke="none" />
  <path id="26" d="M 537,200 C 529.333,208 521.667,216 514,224 C 490.833,246.917 467.667,269.835 444.500,292.752 C 432.861,292.581 421.221,292.411 409.582,292.240 C 397.943,292.069 386.303,291.899 374.664,291.728 C 365.637,300.948 356.609,310.166 347.582,319.386 C 338.555,328.606 329.527,337.825 320.500,347.045 C 307.250,347.204 294,347.364 280.750,347.523 C 267.500,347.682 254.250,347.841 241,348 C 238.809,344.254 243.432,343.872 282.092,344.601 C 294.332,344.832 306.573,345.062 318.813,345.293 C 328.042,336.001 337.272,326.710 346.501,317.418 C 355.730,308.126 364.959,298.835 374.188,289.543 C 386.073,289.640 397.959,289.739 409.844,289.836 C 421.729,289.933 433.615,290.031 445.500,290.128 C 449.319,286.190 453.139,282.252 456.958,278.314 C 463.260,271.816 482.048,252.760 498.708,235.967 C 515.368,219.174 529,204.887 529,204.217 C 529,203.543 527.772,203.023 526.250,203.051 C 524.062,203.092 519.365,207.110 503.250,222.725 C 492.112,233.517 483,242.043 483,241.673 C 483,241.449 483,241.224 483,241 C 496.375,227.333 509.751,213.667 523.126,200 C 525.438,200 527.751,200 530.063,200 C 532.375,200 534.688,200 537,200 Z" fill="#F9E894" stroke="none" />
  <path id="20" d="M 247.394,388.750 C 251.928,383.938 256.507,379.931 257.569,379.847 C 258.631,379.763 276.370,379.820 296.988,379.975 C 309.484,380.069 321.980,380.163 334.476,380.257 C 343.480,371.042 352.484,361.826 361.488,352.611 C 370.492,343.396 379.496,334.181 388.500,324.966 C 391.962,324.972 395.423,324.977 398.885,324.983 C 402.347,324.989 405.808,324.994 409.270,325 C 408.422,325.667 407.575,326.333 406.727,327 C 404.739,328.564 402.692,328.995 397.342,328.979 C 395.061,328.972 392.781,328.965 390.500,328.958 C 381.223,338.324 371.947,347.689 362.670,357.055 C 353.393,366.421 344.118,375.786 334.841,385.152 C 322.072,384.911 309.303,384.671 296.534,384.430 C 283.765,384.189 270.996,383.949 258.227,383.708 C 256.523,385.302 254.817,386.897 253.113,388.491 C 249.690,391.692 248,394.074 248,395.692 C 248,397.931 247.672,398.087 243.575,397.805 C 242.100,397.703 240.625,397.602 239.150,397.500 C 241.898,394.583 244.646,391.667 247.394,388.750 Z" fill="#A11811" stroke="none" />
  <path id="22" d="M 200,390 C 197.869,392.333 195.739,394.667 193.608,397 C 172.360,397 151.111,397 129.863,397 C 84.442,397 65.922,396.683 65.436,395.896 C 65.061,395.289 65.934,393.714 67.377,392.396 C 68.251,391.597 69.126,390.799 70,390 C 70.190,390 70.381,390 70.571,390 C 70.885,390 70.912,390.305 70.631,390.678 C 70.350,391.051 70.509,392.082 70.984,392.970 C 71.765,394.430 77.664,394.572 132.873,394.465 C 193.826,394.347 193.903,394.344 200,390 Z" fill="#F9E894" stroke="none" />
  <path id="26" d="M 241,368 C 243.457,365.346 245.913,362.691 248.370,360.037 C 261.225,360.238 274.080,360.440 286.935,360.641 C 314.804,361.077 325.847,360.933 326.750,360.122 C 327.167,359.748 327.583,359.374 328,359 C 331.667,355.333 335.333,351.667 339,348 C 352.680,333.911 366.360,319.822 380.040,305.733 C 388.200,305.795 396.360,305.857 404.520,305.919 C 430.039,306.113 431.343,306.362 427,310.222 C 426.333,310.815 425.667,311.407 425,312 C 421.851,308.117 420.577,308.003 401.628,308.044 C 394.919,308.059 388.209,308.073 381.500,308.088 C 372.833,316.634 364.167,325.179 355.500,333.725 C 341.200,347.826 329.598,359.687 329.717,360.083 C 329.836,360.479 328.486,361.411 326.717,362.154 C 324.133,363.239 316.119,363.405 286,363.002 C 273.500,362.835 261,362.667 248.500,362.500 C 247.250,363.417 246,364.333 244.750,365.250 C 243.500,366.167 242.250,367.083 241,368 Z" fill="#F9E894" stroke="none" />
  <path id="26" d="M 418,319 C 407.259,319.500 396.519,320 385.778,320.500 C 376.855,329.667 367.933,338.833 359.010,348 C 350.087,357.167 341.165,366.333 332.242,375.500 C 319.035,375.583 305.828,375.667 292.621,375.750 C 279.414,375.833 266.207,375.917 253,376 C 252.143,374.592 252.371,373.889 252.953,373.529 C 253.535,373.169 271.673,372.915 293.258,372.965 C 306.340,372.995 319.421,373.025 332.503,373.055 C 334.584,370.796 336.665,368.537 338.746,366.278 C 342.179,362.550 354.118,350.163 365.276,338.750 C 372.039,331.833 378.801,324.917 385.564,318 C 390.871,318 396.178,318 401.485,318 C 406.792,318 412.098,318 417.405,318 C 418.588,316.917 419.769,315.833 420.952,314.750 C 422.135,313.667 423.317,312.583 424.500,311.500 C 423.417,312.750 422.333,314 421.250,315.250 C 420.167,316.500 419.083,317.750 418,319 Z" fill="#F9E894" stroke="none" />
  <path id="20" d="M 247.895,267.053 C 251.036,265.450 252.489,265.191 253.948,265.972 C 255.031,266.552 262.788,267 271.744,267 C 277.036,267 282.328,267 287.620,267 C 291,263.565 294.381,260.130 297.761,256.695 C 303.338,251.027 308.344,245.226 308.885,243.803 C 309.556,242.038 311.327,240.658 314.457,239.463 C 316.980,238.499 319.359,238.025 319.743,238.409 C 320.127,238.793 312.988,246.522 303.880,255.584 C 298.360,261.076 292.839,266.568 287.319,272.060 C 280.349,271.841 273.380,271.622 266.410,271.403 C 254.910,271.042 245.109,270.390 244.631,269.954 C 244.153,269.518 245.622,268.213 247.895,267.053 Z" fill="#A11811" stroke="none" />
  <path id="26" d="M 215,354 C 222.167,346.593 229.333,339.186 236.500,331.779 C 249.331,331.971 262.161,332.163 274.992,332.355 C 287.823,332.547 300.653,332.739 313.484,332.931 C 321.403,324.942 329.323,316.955 337.242,308.966 C 345.161,300.977 353.081,292.989 361,285 C 363.117,283.167 365.235,281.333 367.352,279.500 C 366.210,281 365.068,282.500 363.926,284 C 362.042,286.475 353.975,294.911 346,302.747 C 338.025,310.583 331.587,317.369 331.693,317.827 C 331.799,318.285 328.299,322.224 323.915,326.580 C 321.258,329.220 318.601,331.860 315.944,334.500 C 302.636,334.500 289.328,334.500 276.020,334.500 C 262.712,334.500 249.403,334.500 236.095,334.500 C 232.579,337.750 229.063,341 225.547,344.250 C 222.031,347.500 218.516,350.750 215,354 Z" fill="#F9E894" stroke="none" />
  <path id="26" d="M 270.725,255.725 C 286.848,248.710 302.075,242.858 303.217,243.239 C 303.700,243.400 299.681,247.870 294.285,253.171 C 291.015,256.384 287.744,259.596 284.474,262.809 C 280.145,262.630 275.816,262.452 271.487,262.273 C 264.344,261.978 258.376,261.635 258.225,261.510 C 258.074,261.385 263.699,258.782 270.725,255.725 ZM 286.250,253.048 C 284.482,253.161 278.500,256.604 278.500,257.509 C 278.500,259.271 283.108,259.212 285.082,257.425 C 286.973,255.714 287.710,252.955 286.250,253.048 Z" fill="#F9E894" stroke="none" />
  <path id="26" d="M 73,387 C 150.887,387.220 175.431,387.305 177.791,387.330 C 181.851,387.374 182.564,386.909 191.041,378.688 C 194.027,375.792 197.014,372.896 200,370 C 200.387,370.684 196.264,375.194 191.087,380.464 C 187.949,383.658 184.813,386.851 181.675,390.045 C 163.408,389.820 145.140,389.595 126.873,389.370 C 96.732,388.998 72.281,388.313 72.536,387.847 C 72.691,387.565 72.845,387.282 73,387 Z" fill="#F9E894" stroke="none" />
  <path id="26" d="M 369,277 C 394.653,277.441 420.307,277.883 445.960,278.324 C 448.967,275.270 451.973,272.216 454.980,269.162 C 457.987,266.108 460.993,263.054 464,260 C 480.932,243.815 478.992,246.178 465.927,260.187 C 455.302,271.580 447.509,279.126 445.960,279.520 C 444.563,279.875 426.185,280.111 405.120,280.044 C 371.712,279.938 366.959,279.735 367.910,278.461 C 368.273,277.974 368.637,277.487 369,277 Z" fill="#F9E894" stroke="none" />
  <path id="22" d="M 214,394 C 215.667,393 217.333,392 219,391 C 219.028,391.583 219.055,392.167 219.083,392.750 C 219.153,394.238 220.190,394.500 226.022,394.500 C 228.308,394.500 230.593,394.500 232.879,394.500 C 238.586,389.333 244.293,384.167 250,379 C 244.181,385 238.361,391 232.542,397 C 229.608,397 226.673,397 223.739,397 C 216.790,397 214.839,396.684 214.469,395.500 C 214.313,395 214.156,394.500 214,394 Z" fill="#F9E894" stroke="none" />
  <path id="24" d="M 369.227,362 C 371.061,362 369.530,364.014 362.030,371.470 C 357.647,375.828 353.733,379.067 353.333,378.667 C 352.599,377.933 367.793,362 369.227,362 Z" fill="#FFDD86" stroke="none" />
  <path id="25" d="M 286.250,253.048 C 287.710,252.955 286.973,255.714 285.082,257.425 C 283.108,259.212 278.500,259.271 278.500,257.509 C 278.500,256.604 284.482,253.161 286.250,253.048 Z" fill="#FFCB74" stroke="none" />
  <path id="26" d="M 240.500,369 C 240.775,369 241,369.225 241,369.500 C 241,369.775 240.775,370 240.500,370 C 240.225,370 240,369.775 240,369.500 C 240,369.225 240.225,369 240.500,369 Z" fill="#F9E894" stroke="none" />
  <path id="26" d="M 240,348.500 C 240,348.775 239.775,349 239.500,349 C 239.225,349 239,348.775 239,348.500 C 239,348.225 239.225,348 239.500,348 C 239.775,348 240,348.225 240,348.500 Z" fill="#F9E894" stroke="none" />
  <path id="26" d="M 214.500,355 C 214.775,355 215,355.225 215,355.500 C 215,355.775 214.775,356 214.500,356 C 214.225,356 214,355.775 214,355.500 C 214,355.225 214.225,355 214.500,355 Z" fill="#F9E894" stroke="none" />
  <path id="22" d="M 251.500,376 C 251.775,376 252,376.225 252,376.500 C 252,376.775 251.775,377 251.500,377 C 251.225,377 251,376.775 251,376.500 C 251,376.225 251.225,376 251.500,376 Z" fill="#F9E894" stroke="none" />
  <path id="22" d="M 250.500,378 C 250.225,378 250,377.775 250,377.500 C 250,377.225 250.225,377 250.500,377 C 250.775,377 251,377.225 251,377.500 C 251,377.775 250.775,378 250.500,378 Z" fill="#F9E894" stroke="none" />
</svg>
